<svg width="583" height="584" version="1.1" xmlns="http://www.w3.org/2000/svg" desc="Created with imagetracer.js version 1.2.6" ><path fill="rgb(0,0,0)" stroke="rgb(0,0,0)" stroke-width="1" opacity="0" d="M 0 0 L 275 0.5 L 262.5 1 L 261.5 2 L 246.5 3 Q 240 6 230.5 6 Q 199 13 172.5 25 Q 120.4 48.9 83 87.5 Q 45 126 22 179.5 L 12 207.5 L 7 226.5 L 2 254.5 L 0.5 275 L 0 0 Z " /><path fill="rgb(0,0,0)" stroke="rgb(0,0,0)" stroke-width="1" opacity="0" d="M 308.5 0 L 583 0 L 583 274.5 L 582 274.5 L 581 254.5 L 576 226.5 Q 568.9 196.1 557 170.5 Q 533.2 119.8 495.5 83 Q 459.5 47.5 410.5 25 Q 384 13 352.5 6 Q 343 6 336.5 3 L 321.5 2 L 320.5 1 L 308.5 1 L 308.5 0 Z " /><path fill="rgb(0,0,0)" stroke="rgb(0,0,0)" stroke-width="1" opacity="0" d="M 0.5 309 L 2 329.5 L 7 357.5 Q 14.1 387.9 26 413.5 Q 49.8 464.2 87.5 501 Q 123.5 536.5 172.5 559 Q 199 571 230.5 578 Q 240 578 246.5 581 L 261.5 582 L 262.5 583 L 275 583.5 L 0 584 L 0.5 309 Z " /><path fill="rgb(0,0,0)" stroke="rgb(0,0,0)" stroke-width="1" opacity="0" d="M 582.5 309 L 583 584 L 308 583.5 L 320.5 583 L 321.5 582 L 336.5 581 Q 343 578 352.5 578 Q 384 571 410.5 559 Q 462.6 535.1 500 496.5 Q 538 458 561 404.5 L 571 376.5 L 576 357.5 L 581 329.5 L 582.5 309 Z " /><path fill="rgb(193,148,111)" stroke="rgb(193,148,111)" stroke-width="1" opacity="1" d="M 275.5 21 L 287 21.5 L 275.5 22 L 275.5 21 Z " /><path fill="rgb(193,148,111)" stroke="rgb(193,148,111)" stroke-width="1" opacity="1" d="M 296.5 21 L 308 21.5 L 296.5 22 L 296.5 21 Z " /><path fill="rgb(193,148,111)" stroke="rgb(193,148,111)" stroke-width="1" opacity="1" d="M 263.5 22 L 268 22.5 L 263.5 23 L 263.5 22 Z " /><path fill="rgb(193,148,111)" stroke="rgb(193,148,111)" stroke-width="1" opacity="1" d="M 315.5 22 L 320 22.5 L 315.5 23 L 315.5 22 Z " /><path fill="rgb(193,148,111)" stroke="rgb(193,148,111)" stroke-width="1" opacity="1" d="M 255.5 23 L 258 23.5 L 255.5 24 L 255.5 23 Z " /><path fill="rgb(193,148,111)" stroke="rgb(193,148,111)" stroke-width="1" opacity="1" d="M 325.5 23 L 328 23.5 L 325.5 24 L 325.5 23 Z " /><path fill="rgb(193,148,111)" stroke="rgb(193,148,111)" stroke-width="1" opacity="1" d="M 242.5 25 L 245 25.5 L 242.5 26 L 242.5 25 Z " /><path fill="rgb(193,148,111)" stroke="rgb(193,148,111)" stroke-width="1" opacity="1" d="M 338.5 25 L 341 25.5 L 338.5 26 L 338.5 25 Z " /><path fill="rgb(193,148,111)" stroke="rgb(193,148,111)" stroke-width="1" opacity="1" d="M 152.5 59 L 151.5 61 L 152.5 59 Z " /><path fill="rgb(193,148,111)" stroke="rgb(193,148,111)" stroke-width="1" opacity="1" d="M 430.5 59 L 431.5 61 L 430.5 59 Z " /><path fill="rgb(193,148,111)" stroke="rgb(193,148,111)" stroke-width="1" opacity="1" d="M 144.5 64 L 143.5 66 L 144.5 64 Z " /><path fill="rgb(193,148,111)" stroke="rgb(193,148,111)" stroke-width="1" opacity="1" d="M 438.5 64 L 439.5 66 L 438.5 64 Z " /><path fill="rgb(193,148,111)" stroke="rgb(193,148,111)" stroke-width="1" opacity="1" d="M 141.5 66 L 140.5 68 L 141.5 66 Z " /><path fill="rgb(193,148,111)" stroke="rgb(193,148,111)" stroke-width="1" opacity="1" d="M 441.5 66 L 442.5 68 L 441.5 66 Z " /><path fill="rgb(193,148,111)" stroke="rgb(193,148,111)" stroke-width="1" opacity="1" d="M 138.5 68 L 137.5 70 L 138.5 68 Z " /><path fill="rgb(193,148,111)" stroke="rgb(193,148,111)" stroke-width="1" opacity="1" d="M 444.5 68 L 445.5 70 L 444.5 68 Z " /><path fill="rgb(193,148,111)" stroke="rgb(193,148,111)" stroke-width="1" opacity="1" d="M 134.5 71 L 133.5 73 L 134.5 71 Z " /><path fill="rgb(193,148,111)" stroke="rgb(193,148,111)" stroke-width="1" opacity="1" d="M 448.5 71 L 449.5 73 L 448.5 71 Z " /><path fill="rgb(193,148,111)" stroke="rgb(193,148,111)" stroke-width="1" opacity="1" d="M 131.5 73 L 130.5 75 L 131.5 73 Z " /><path fill="rgb(193,148,111)" stroke="rgb(193,148,111)" stroke-width="1" opacity="1" d="M 451.5 73 L 452.5 75 L 451.5 73 Z " /><path fill="rgb(193,148,111)" stroke="rgb(193,148,111)" stroke-width="1" opacity="1" d="M 127.5 76 L 125.5 79 L 127.5 76 Z " /><path fill="rgb(193,148,111)" stroke="rgb(193,148,111)" stroke-width="1" opacity="1" d="M 455.5 76 L 457.5 79 L 455.5 76 Z " /><path fill="rgb(193,148,111)" stroke="rgb(193,148,111)" stroke-width="1" opacity="1" d="M 122.5 80 L 120.5 83 L 122.5 80 Z " /><path fill="rgb(193,148,111)" stroke="rgb(193,148,111)" stroke-width="1" opacity="1" d="M 460.5 80 L 462.5 83 L 460.5 80 Z " /><path fill="rgb(193,148,111)" stroke="rgb(193,148,111)" stroke-width="1" opacity="1" d="M 117.5 84 L 113.5 89 L 117.5 84 Z " /><path fill="rgb(193,148,111)" stroke="rgb(193,148,111)" stroke-width="1" opacity="1" d="M 465.5 84 L 469.5 89 L 465.5 84 Z " /><path fill="rgb(193,148,111)" stroke="rgb(193,148,111)" stroke-width="1" opacity="1" d="M 109.5 91 L 91.5 110 L 109.5 91 Z " /><path fill="rgb(193,148,111)" stroke="rgb(193,148,111)" stroke-width="1" opacity="1" d="M 473.5 91 L 491.5 110 L 473.5 91 Z " /><path fill="rgb(193,148,111)" stroke="rgb(193,148,111)" stroke-width="1" opacity="1" d="M 347.5 99 L 355 99.5 L 347.5 100 L 347.5 99 Z " /><path fill="rgb(193,148,111)" stroke="rgb(193,148,111)" stroke-width="1" opacity="1" d="M 361.5 99 L 368 99.5 L 361.5 100 L 361.5 99 Z " /><path fill="rgb(193,148,111)" stroke="rgb(193,148,111)" stroke-width="1" opacity="1" d="M 390.5 99 L 395 99.5 L 390.5 100 L 390.5 99 Z " /><path fill="rgb(193,148,111)" stroke="rgb(193,148,111)" stroke-width="1" opacity="1" d="M 410.5 99 L 414 99.5 L 410.5 100 L 410.5 99 Z " /><path fill="rgb(193,148,111)" stroke="rgb(193,148,111)" stroke-width="1" opacity="1" d="M 342.5 100 L 345 100.5 Q 341.9 102.9 335.5 102 L 335.5 101 Q 341 102.5 342.5 100 Z " /><path fill="rgb(193,148,111)" stroke="rgb(193,148,111)" stroke-width="1" opacity="1" d="M 373.5 100 L 380 100.5 L 373.5 101 L 373.5 100 Z " /><path fill="rgb(193,148,111)" stroke="rgb(193,148,111)" stroke-width="1" opacity="1" d="M 420.5 100 L 431 101.5 L 422.5 102 L 420.5 100 Z " /><path fill="rgb(193,148,111)" stroke="rgb(193,148,111)" stroke-width="1" opacity="1" d="M 314.5 109 L 313.5 111 L 314.5 109 Z " /><path fill="rgb(193,148,111)" stroke="rgb(193,148,111)" stroke-width="1" opacity="1" d="M 450.5 110 L 453 111.5 L 451.5 112 L 450.5 110 Z " /><path fill="rgb(193,148,111)" stroke="rgb(193,148,111)" stroke-width="1" opacity="1" d="M 88.5 113 L 85.5 117 L 88.5 113 Z " /><path fill="rgb(193,148,111)" stroke="rgb(193,148,111)" stroke-width="1" opacity="1" d="M 494.5 113 L 497.5 117 L 494.5 113 Z " /><path fill="rgb(193,148,111)" stroke="rgb(193,148,111)" stroke-width="1" opacity="1" d="M 299.5 116 L 301 116.5 L 298.5 118 L 299.5 116 Z " /><path fill="rgb(193,148,111)" stroke="rgb(193,148,111)" stroke-width="1" opacity="1" d="M 295.5 119 L 294.5 121 L 295.5 119 Z " /><path fill="rgb(193,148,111)" stroke="rgb(193,148,111)" stroke-width="1" opacity="1" d="M 82.5 120 L 80.5 123 L 82.5 120 Z " /><path fill="rgb(193,148,111)" stroke="rgb(193,148,111)" stroke-width="1" opacity="1" d="M 454.5 120 L 457 123.5 L 456 123.5 L 454.5 120 Z " /><path fill="rgb(193,148,111)" stroke="rgb(193,148,111)" stroke-width="1" opacity="1" d="M 500.5 120 L 502.5 123 L 500.5 120 Z " /><path fill="rgb(193,148,111)" stroke="rgb(193,148,111)" stroke-width="1" opacity="1" d="M 292.5 121 L 291.5 123 L 292.5 121 Z " /><path fill="rgb(193,148,111)" stroke="rgb(193,148,111)" stroke-width="1" opacity="1" d="M 78.5 125 L 77.5 127 L 78.5 125 Z " /><path fill="rgb(193,148,111)" stroke="rgb(193,148,111)" stroke-width="1" opacity="1" d="M 272.5 125 L 285 125.5 L 272.5 126 L 272.5 125 Z " /><path fill="rgb(193,148,111)" stroke="rgb(193,148,111)" stroke-width="1" opacity="1" d="M 504.5 125 L 505.5 127 L 504.5 125 Z " /><path fill="rgb(193,148,111)" stroke="rgb(193,148,111)" stroke-width="1" opacity="1" d="M 254.5 128 L 258 128.5 L 250.5 130 L 250.5 129 L 254.5 128 Z " /><path fill="rgb(193,148,111)" stroke="rgb(193,148,111)" stroke-width="1" opacity="1" d="M 75.5 129 L 74.5 131 L 75.5 129 Z " /><path fill="rgb(193,148,111)" stroke="rgb(193,148,111)" stroke-width="1" opacity="1" d="M 507.5 129 L 508.5 131 L 507.5 129 Z " /><path fill="rgb(193,148,111)" stroke="rgb(193,148,111)" stroke-width="1" opacity="1" d="M 460.5 131 L 464 135.5 L 463 135.5 L 460.5 131 Z " /><path fill="rgb(193,148,111)" stroke="rgb(193,148,111)" stroke-width="1" opacity="1" d="M 72.5 133 L 71.5 135 L 72.5 133 Z " /><path fill="rgb(193,148,111)" stroke="rgb(193,148,111)" stroke-width="1" opacity="1" d="M 510.5 133 L 511.5 135 L 510.5 133 Z " /><path fill="rgb(193,148,111)" stroke="rgb(193,148,111)" stroke-width="1" opacity="1" d="M 240.5 134 L 239.5 136 L 240.5 134 Z " /><path fill="rgb(193,148,111)" stroke="rgb(193,148,111)" stroke-width="1" opacity="1" d="M 67.5 140 L 66.5 142 L 67.5 140 Z " /><path fill="rgb(193,148,111)" stroke="rgb(193,148,111)" stroke-width="1" opacity="1" d="M 515.5 140 L 516.5 142 L 515.5 140 Z " /><path fill="rgb(193,148,111)" stroke="rgb(193,148,111)" stroke-width="1" opacity="1" d="M 225.5 145 L 224.5 147 L 222.5 148 L 223.5 146 L 225.5 145 Z " /><path fill="rgb(193,148,111)" stroke="rgb(193,148,111)" stroke-width="1" opacity="1" d="M 62.5 148 L 61.5 150 L 62.5 148 Z " /><path fill="rgb(193,148,111)" stroke="rgb(193,148,111)" stroke-width="1" opacity="1" d="M 520.5 148 L 521.5 150 L 520.5 148 Z " /><path fill="rgb(193,148,111)" stroke="rgb(193,148,111)" stroke-width="1" opacity="1" d="M 217.5 150 L 211.5 157 L 217.5 150 Z " /><path fill="rgb(193,148,111)" stroke="rgb(193,148,111)" stroke-width="1" opacity="1" d="M 464.5 155 L 465 156.5 L 462 158.5 L 464.5 155 Z " /><path fill="rgb(193,148,111)" stroke="rgb(193,148,111)" stroke-width="1" opacity="1" d="M 209.5 157 L 204.5 163 L 209.5 157 Z " /><path fill="rgb(193,148,111)" stroke="rgb(193,148,111)" stroke-width="1" opacity="1" d="M 56.5 158 L 55.5 160 L 56.5 158 Z " /><path fill="rgb(193,148,111)" stroke="rgb(193,148,111)" stroke-width="1" opacity="1" d="M 526.5 158 L 527.5 160 L 526.5 158 Z " /><path fill="rgb(193,148,111)" stroke="rgb(193,148,111)" stroke-width="1" opacity="1" d="M 461.5 161 L 459.5 164 L 461.5 161 Z " /><path fill="rgb(193,148,111)" stroke="rgb(193,148,111)" stroke-width="1" opacity="1" d="M 199.5 163 L 202 163.5 L 199.5 164 L 199.5 163 Z " /><path fill="rgb(193,148,111)" stroke="rgb(193,148,111)" stroke-width="1" opacity="1" d="M 458.5 165 L 459 169.5 L 457 170.5 L 458.5 165 Z " /><path fill="rgb(193,148,111)" stroke="rgb(193,148,111)" stroke-width="1" opacity="1" d="M 189.5 168 L 188.5 170 L 189.5 168 Z " /><path fill="rgb(193,148,111)" stroke="rgb(193,148,111)" stroke-width="1" opacity="1" d="M 456.5 172 L 457 177.5 L 456 177.5 L 456.5 172 Z " /><path fill="rgb(193,148,111)" stroke="rgb(193,148,111)" stroke-width="1" opacity="1" d="M 180.5 174 L 168.5 187 L 180.5 174 Z " /><path fill="rgb(193,148,111)" stroke="rgb(193,148,111)" stroke-width="1" opacity="1" d="M 456.5 181 L 457 185.5 L 456 185.5 L 456.5 181 Z " /><path fill="rgb(193,148,111)" stroke="rgb(193,148,111)" stroke-width="1" opacity="1" d="M 166.5 188 L 165.5 190 L 166.5 188 Z " /><path fill="rgb(193,148,111)" stroke="rgb(193,148,111)" stroke-width="1" opacity="1" d="M 452.5 202 L 453 204.5 L 452 204.5 L 452.5 202 Z " /><path fill="rgb(193,148,111)" stroke="rgb(193,148,111)" stroke-width="1" opacity="1" d="M 154.5 207 L 153.5 209 L 154.5 207 Z " /><path fill="rgb(193,148,111)" stroke="rgb(193,148,111)" stroke-width="1" opacity="1" d="M 151.5 210 L 149.5 213 L 151.5 210 Z " /><path fill="rgb(193,148,111)" stroke="rgb(193,148,111)" stroke-width="1" opacity="1" d="M 448.5 210 L 451 210.5 L 447.5 212 L 448.5 210 Z " /><path fill="rgb(193,148,111)" stroke="rgb(193,148,111)" stroke-width="1" opacity="1" d="M 148.5 214 L 148 215.5 L 147.5 217 L 147 215.5 L 148.5 214 Z " /><path fill="rgb(193,148,111)" stroke="rgb(193,148,111)" stroke-width="1" opacity="1" d="M 418.5 216 L 420 216.5 L 417 218.5 L 416.5 220 L 416 218.5 L 418.5 216 Z " /><path fill="rgb(193,148,111)" stroke="rgb(193,148,111)" stroke-width="1" opacity="1" d="M 441.5 218 L 440.5 220 L 441.5 218 Z " /><path fill="rgb(193,148,111)" stroke="rgb(193,148,111)" stroke-width="1" opacity="1" d="M 143.5 224 L 142.5 226 L 143.5 224 Z " /><path fill="rgb(193,148,111)" stroke="rgb(193,148,111)" stroke-width="1" opacity="1" d="M 141.5 227 L 139.5 230 L 141.5 227 Z " /><path fill="rgb(193,148,111)" stroke="rgb(193,148,111)" stroke-width="1" opacity="1" d="M 415.5 229 L 417 231.5 L 416 231.5 L 415.5 229 Z " /><path fill="rgb(193,148,111)" stroke="rgb(193,148,111)" stroke-width="1" opacity="1" d="M 26.5 237 L 27 239.5 L 26 239.5 L 26.5 237 Z " /><path fill="rgb(193,148,111)" stroke="rgb(193,148,111)" stroke-width="1" opacity="1" d="M 556.5 237 L 557 239.5 L 556 239.5 L 556.5 237 Z " /><path fill="rgb(193,148,111)" stroke="rgb(193,148,111)" stroke-width="1" opacity="1" d="M 418.5 238 L 420.5 241 L 418.5 238 Z " /><path fill="rgb(193,148,111)" stroke="rgb(193,148,111)" stroke-width="1" opacity="1" d="M 134.5 242 L 133.5 244 L 134.5 242 Z " /><path fill="rgb(193,148,111)" stroke="rgb(193,148,111)" stroke-width="1" opacity="1" d="M 24.5 248 L 25 250.5 L 24 250.5 L 24.5 248 Z " /><path fill="rgb(193,148,111)" stroke="rgb(193,148,111)" stroke-width="1" opacity="1" d="M 558.5 248 L 559 250.5 L 558 250.5 L 558.5 248 Z " /><path fill="rgb(193,148,111)" stroke="rgb(193,148,111)" stroke-width="1" opacity="1" d="M 421.5 249 L 422 251.5 L 421 251.5 L 421.5 249 Z " /><path fill="rgb(193,148,111)" stroke="rgb(193,148,111)" stroke-width="1" opacity="1" d="M 23.5 255 L 24 258.5 L 23 258.5 L 23.5 255 Z " /><path fill="rgb(193,148,111)" stroke="rgb(193,148,111)" stroke-width="1" opacity="1" d="M 559.5 255 L 560 258.5 L 559 258.5 L 559.5 255 Z " /><path fill="rgb(193,148,111)" stroke="rgb(193,148,111)" stroke-width="1" opacity="1" d="M 130.5 257 L 131 264.5 L 130 264.5 L 130.5 257 Z " /><path fill="rgb(193,148,111)" stroke="rgb(193,148,111)" stroke-width="1" opacity="1" d="M 421.5 257 L 422 260.5 L 421 260.5 L 421.5 257 Z " /><path fill="rgb(193,148,111)" stroke="rgb(193,148,111)" stroke-width="1" opacity="1" d="M 22.5 263 L 23 267.5 L 22 267.5 L 22.5 263 Z " /><path fill="rgb(193,148,111)" stroke="rgb(193,148,111)" stroke-width="1" opacity="1" d="M 560.5 263 L 561 267.5 L 560 267.5 L 560.5 263 Z " /><path fill="rgb(193,148,111)" stroke="rgb(193,148,111)" stroke-width="1" opacity="1" d="M 321.5 267 L 320.5 269 L 321.5 267 Z " /><path fill="rgb(193,148,111)" stroke="rgb(193,148,111)" stroke-width="1" opacity="1" d="M 423.5 267 L 424 272.5 L 422 273.5 L 423.5 267 Z " /><path fill="rgb(193,148,111)" stroke="rgb(193,148,111)" stroke-width="1" opacity="1" d="M 307.5 269 L 309 269.5 L 305.5 272 L 307.5 269 Z " /><path fill="rgb(193,148,111)" stroke="rgb(193,148,111)" stroke-width="1" opacity="1" d="M 128.5 271 L 129 277.5 L 128 277.5 L 128.5 271 Z " /><path fill="rgb(193,148,111)" stroke="rgb(193,148,111)" stroke-width="1" opacity="1" d="M 303.5 271 L 304 273 L 302 272.5 L 303.5 271 Z " /><path fill="rgb(193,148,111)" stroke="rgb(193,148,111)" stroke-width="1" opacity="1" d="M 21.5 275 L 22 286.5 L 21 286.5 L 21.5 275 Z " /><path fill="rgb(193,148,111)" stroke="rgb(193,148,111)" stroke-width="1" opacity="1" d="M 561.5 275 L 562 286.5 L 561 286.5 L 561.5 275 Z " /><path fill="rgb(193,148,111)" stroke="rgb(193,148,111)" stroke-width="1" opacity="1" d="M 290.5 276 L 293 276.5 L 290.5 277 L 290.5 276 Z " /><path fill="rgb(193,148,111)" stroke="rgb(193,148,111)" stroke-width="1" opacity="1" d="M 285.5 277 L 287 277.5 L 284.5 279 L 285.5 277 Z " /><path fill="rgb(193,148,111)" stroke="rgb(193,148,111)" stroke-width="1" opacity="1" d="M 328.5 279 L 330.5 282 L 328.5 279 Z " /><path fill="rgb(193,148,111)" stroke="rgb(193,148,111)" stroke-width="1" opacity="1" d="M 126.5 280 L 127 282.5 L 126 282.5 L 126.5 280 Z " /><path fill="rgb(193,148,111)" stroke="rgb(193,148,111)" stroke-width="1" opacity="1" d="M 284.5 281 L 286 283.5 L 285 283.5 L 284.5 281 Z " /><path fill="rgb(193,148,111)" stroke="rgb(193,148,111)" stroke-width="1" opacity="1" d="M 428.5 281 L 430.5 284 L 428.5 281 Z " /><path fill="rgb(193,148,111)" stroke="rgb(193,148,111)" stroke-width="1" opacity="1" d="M 125.5 286 L 126 290.5 L 125 290.5 L 125.5 286 Z " /><path fill="rgb(193,148,111)" stroke="rgb(193,148,111)" stroke-width="1" opacity="1" d="M 331.5 286 L 332.5 288 L 331.5 286 Z " /><path fill="rgb(193,148,111)" stroke="rgb(193,148,111)" stroke-width="1" opacity="1" d="M 438.5 287 L 440 289.5 L 439 289.5 L 438.5 287 Z " /><path fill="rgb(193,148,111)" stroke="rgb(193,148,111)" stroke-width="1" opacity="1" d="M 291.5 290 L 293.5 293 L 291.5 290 Z " /><path fill="rgb(193,148,111)" stroke="rgb(193,148,111)" stroke-width="1" opacity="1" d="M 123.5 293 L 124 300.5 L 123 300.5 L 123.5 293 Z " /><path fill="rgb(193,148,111)" stroke="rgb(193,148,111)" stroke-width="1" opacity="1" d="M 295.5 295 L 296.5 297 L 295.5 295 Z " /><path fill="rgb(193,148,111)" stroke="rgb(193,148,111)" stroke-width="1" opacity="1" d="M 21.5 297 L 22 308.5 L 21 308.5 L 21.5 297 Z " /><path fill="rgb(193,148,111)" stroke="rgb(193,148,111)" stroke-width="1" opacity="1" d="M 332.5 297 L 334 303.5 L 333 303.5 L 332.5 297 Z " /><path fill="rgb(193,148,111)" stroke="rgb(193,148,111)" stroke-width="1" opacity="1" d="M 561.5 297 L 562 308.5 L 561 308.5 L 561.5 297 Z " /><path fill="rgb(193,148,111)" stroke="rgb(193,148,111)" stroke-width="1" opacity="1" d="M 449.5 298 L 454 301.5 L 452.5 302 L 449.5 298 Z " /><path fill="rgb(193,148,111)" stroke="rgb(193,148,111)" stroke-width="1" opacity="1" d="M 455.5 302 L 456 304.5 L 455 304.5 L 455.5 302 Z " /><path fill="rgb(193,148,111)" stroke="rgb(193,148,111)" stroke-width="1" opacity="1" d="M 299.5 304 L 300 308.5 L 299 308.5 L 299.5 304 Z " /><path fill="rgb(193,148,111)" stroke="rgb(193,148,111)" stroke-width="1" opacity="1" d="M 125.5 305 L 126 308.5 L 125 308.5 L 125.5 305 Z " /><path fill="rgb(193,148,111)" stroke="rgb(193,148,111)" stroke-width="1" opacity="1" d="M 460.5 311 L 465 313.5 L 463.5 313 Q 459.7 313.5 460.5 311 Z " /><path fill="rgb(193,148,111)" stroke="rgb(193,148,111)" stroke-width="1" opacity="1" d="M 300.5 312 L 301.5 314 L 300.5 312 Z " /><path fill="rgb(193,148,111)" stroke="rgb(193,148,111)" stroke-width="1" opacity="1" d="M 466.5 314 L 467.5 316 L 466.5 314 Z " /><path fill="rgb(193,148,111)" stroke="rgb(193,148,111)" stroke-width="1" opacity="1" d="M 22.5 316 L 23 320.5 L 22 320.5 L 22.5 316 Z " /><path fill="rgb(193,148,111)" stroke="rgb(193,148,111)" stroke-width="1" opacity="1" d="M 469.5 316 L 473 320.5 L 469 317.5 L 469.5 316 Z " /><path fill="rgb(193,148,111)" stroke="rgb(193,148,111)" stroke-width="1" opacity="1" d="M 560.5 316 L 561 320.5 L 560 320.5 L 560.5 316 Z " /><path fill="rgb(193,148,111)" stroke="rgb(193,148,111)" stroke-width="1" opacity="1" d="M 207.5 320 Q 211.3 319.3 212 321.5 L 210.5 321 Q 206.5 321.8 207.5 320 Z " /><path fill="rgb(193,148,111)" stroke="rgb(193,148,111)" stroke-width="1" opacity="1" d="M 206.5 322 L 205.5 324 L 206.5 322 Z " /><path fill="rgb(193,148,111)" stroke="rgb(193,148,111)" stroke-width="1" opacity="1" d="M 307.5 323 L 308.5 325 L 307.5 323 Z " /><path fill="rgb(193,148,111)" stroke="rgb(193,148,111)" stroke-width="1" opacity="1" d="M 23.5 325 L 24 328.5 L 23 328.5 L 23.5 325 Z " /><path fill="rgb(193,148,111)" stroke="rgb(193,148,111)" stroke-width="1" opacity="1" d="M 559.5 325 L 560 328.5 L 559 328.5 L 559.5 325 Z " /><path fill="rgb(193,148,111)" stroke="rgb(193,148,111)" stroke-width="1" opacity="1" d="M 133.5 328 L 134 330.5 L 133 330.5 L 133.5 328 Z " /><path fill="rgb(193,148,111)" stroke="rgb(193,148,111)" stroke-width="1" opacity="1" d="M 480.5 328 L 481.5 330 L 480.5 328 Z " /><path fill="rgb(193,148,111)" stroke="rgb(193,148,111)" stroke-width="1" opacity="1" d="M 310.5 329 L 319 340.5 L 317 339.5 L 310.5 329 Z " /><path fill="rgb(193,148,111)" stroke="rgb(193,148,111)" stroke-width="1" opacity="1" d="M 233.5 332 L 235 334.5 L 234 334.5 L 233.5 332 Z " /><path fill="rgb(193,148,111)" stroke="rgb(193,148,111)" stroke-width="1" opacity="1" d="M 24.5 333 L 25 335.5 L 24 335.5 L 24.5 333 Z " /><path fill="rgb(193,148,111)" stroke="rgb(193,148,111)" stroke-width="1" opacity="1" d="M 558.5 333 L 559 335.5 L 558 335.5 L 558.5 333 Z " /><path fill="rgb(193,148,111)" stroke="rgb(193,148,111)" stroke-width="1" opacity="1" d="M 490.5 335 L 492.5 338 L 490.5 335 Z " /><path fill="rgb(193,148,111)" stroke="rgb(193,148,111)" stroke-width="1" opacity="1" d="M 394.5 337 L 391.5 341 L 392 339.5 Q 391.3 337.3 393.5 338 L 394.5 337 Z " /><path fill="rgb(193,148,111)" stroke="rgb(193,148,111)" stroke-width="1" opacity="1" d="M 136.5 338 L 141 342.5 L 141 347.5 L 140 347.5 L 140 342.5 L 136.5 338 Z " /><path fill="rgb(193,148,111)" stroke="rgb(193,148,111)" stroke-width="1" opacity="1" d="M 200.5 339 Q 203 340 202 344.5 L 200.5 347 L 200 345.5 L 201 340.5 L 200.5 339 Z " /><path fill="rgb(193,148,111)" stroke="rgb(193,148,111)" stroke-width="1" opacity="1" d="M 335.5 340 L 337 342.5 L 335.5 345 L 335.5 340 Z " /><path fill="rgb(193,148,111)" stroke="rgb(193,148,111)" stroke-width="1" opacity="1" d="M 254.5 341 L 256 343.5 L 254 342.5 L 254.5 341 Z " /><path fill="rgb(193,148,111)" stroke="rgb(193,148,111)" stroke-width="1" opacity="1" d="M 319.5 342 L 321 344.5 L 319 343.5 L 319.5 342 Z " /><path fill="rgb(193,148,111)" stroke="rgb(193,148,111)" stroke-width="1" opacity="1" d="M 26.5 344 L 27 346.5 L 26 346.5 L 26.5 344 Z " /><path fill="rgb(193,148,111)" stroke="rgb(193,148,111)" stroke-width="1" opacity="1" d="M 390.5 344 L 391 346.5 L 389.5 349 L 389 347.5 L 390.5 344 Z " /><path fill="rgb(193,148,111)" stroke="rgb(193,148,111)" stroke-width="1" opacity="1" d="M 556.5 344 L 557 346.5 L 556 346.5 L 556.5 344 Z " /><path fill="rgb(193,148,111)" stroke="rgb(193,148,111)" stroke-width="1" opacity="1" d="M 497.5 345 L 498 347.5 L 497 347.5 L 497.5 345 Z " /><path fill="rgb(193,148,111)" stroke="rgb(193,148,111)" stroke-width="1" opacity="1" d="M 335.5 347 L 336 349.5 L 335 349.5 L 335.5 347 Z " /><path fill="rgb(193,148,111)" stroke="rgb(193,148,111)" stroke-width="1" opacity="1" d="M 498.5 349 L 499 358.5 L 498 358.5 L 498.5 349 Z " /><path fill="rgb(193,148,111)" stroke="rgb(193,148,111)" stroke-width="1" opacity="1" d="M 256.5 350 L 259 356.5 L 257 355.5 L 256.5 350 Z " /><path fill="rgb(193,148,111)" stroke="rgb(193,148,111)" stroke-width="1" opacity="1" d="M 335.5 351 L 336 354.5 L 335 354.5 L 335.5 351 Z " /><path fill="rgb(193,148,111)" stroke="rgb(193,148,111)" stroke-width="1" opacity="1" d="M 403.5 352 L 409 355.5 L 407.5 356 L 403.5 352 Z " /><path fill="rgb(193,148,111)" stroke="rgb(193,148,111)" stroke-width="1" opacity="1" d="M 324.5 353 L 326 356.5 L 325 356.5 L 324.5 353 Z " /><path fill="rgb(193,148,111)" stroke="rgb(193,148,111)" stroke-width="1" opacity="1" d="M 198.5 354 L 198 355.5 L 197.5 357 L 197 355.5 L 198.5 354 Z " /><path fill="rgb(193,148,111)" stroke="rgb(193,148,111)" stroke-width="1" opacity="1" d="M 390.5 354 L 391 359.5 L 390 359.5 L 390.5 354 Z " /><path fill="rgb(193,148,111)" stroke="rgb(193,148,111)" stroke-width="1" opacity="1" d="M 136.5 355 L 139 355.5 L 133.5 359 L 136.5 355 Z " /><path fill="rgb(193,148,111)" stroke="rgb(193,148,111)" stroke-width="1" opacity="1" d="M 336.5 356 L 339 359.5 L 338 359.5 L 336.5 356 Z " /><path fill="rgb(193,148,111)" stroke="rgb(193,148,111)" stroke-width="1" opacity="1" d="M 258.5 358 L 261.5 362 L 258.5 358 Z " /><path fill="rgb(193,148,111)" stroke="rgb(193,148,111)" stroke-width="1" opacity="1" d="M 195.5 359 L 195 360.5 L 192.5 364 L 194 361.5 L 195.5 359 Z " /><path fill="rgb(193,148,111)" stroke="rgb(193,148,111)" stroke-width="1" opacity="1" d="M 411.5 359 L 415 360.5 L 413.5 361 L 411.5 359 Z " /><path fill="rgb(193,148,111)" stroke="rgb(193,148,111)" stroke-width="1" opacity="1" d="M 417.5 362 L 418.5 364 Q 415.7 364.7 417.5 362 Z " /><path fill="rgb(193,148,111)" stroke="rgb(193,148,111)" stroke-width="1" opacity="1" d="M 330.5 364 L 332 366.5 L 330 365.5 L 330.5 364 Z " /><path fill="rgb(193,148,111)" stroke="rgb(193,148,111)" stroke-width="1" opacity="1" d="M 391.5 365 L 392 367.5 L 391 367.5 L 391.5 365 Z " /><path fill="rgb(193,148,111)" stroke="rgb(193,148,111)" stroke-width="1" opacity="1" d="M 421.5 365 L 422.5 367 L 421.5 365 Z " /><path fill="rgb(193,148,111)" stroke="rgb(193,148,111)" stroke-width="1" opacity="1" d="M 426.5 366 L 425.5 368 L 424 367.5 L 426.5 366 Z " /><path fill="rgb(193,148,111)" stroke="rgb(193,148,111)" stroke-width="1" opacity="1" d="M 428.5 366 L 431 367.5 L 429.5 368 L 428.5 366 Z " /><path fill="rgb(193,148,111)" stroke="rgb(193,148,111)" stroke-width="1" opacity="1" d="M 266.5 369 L 269 370.5 L 267.5 371 L 266.5 369 Z " /><path fill="rgb(193,148,111)" stroke="rgb(193,148,111)" stroke-width="1" opacity="1" d="M 333.5 369 L 335 371.5 L 333 370.5 L 333.5 369 Z " /><path fill="rgb(193,148,111)" stroke="rgb(193,148,111)" stroke-width="1" opacity="1" d="M 391.5 369 L 393 374.5 L 392 374.5 L 391.5 369 Z " /><path fill="rgb(193,148,111)" stroke="rgb(193,148,111)" stroke-width="1" opacity="1" d="M 124.5 370 L 125 372 L 121.5 374 L 124.5 370 Z " /><path fill="rgb(193,148,111)" stroke="rgb(193,148,111)" stroke-width="1" opacity="1" d="M 435.5 370 L 440 373.5 L 436.5 371 L 435.5 370 Z " /><path fill="rgb(193,148,111)" stroke="rgb(193,148,111)" stroke-width="1" opacity="1" d="M 268.5 372 L 270.5 375 L 268.5 372 Z " /><path fill="rgb(193,148,111)" stroke="rgb(193,148,111)" stroke-width="1" opacity="1" d="M 183.5 374 L 184 375.5 L 182 376.5 L 183.5 374 Z " /><path fill="rgb(193,148,111)" stroke="rgb(193,148,111)" stroke-width="1" opacity="1" d="M 445.5 374 L 450 374.5 L 445.5 375 L 445.5 374 Z " /><path fill="rgb(193,148,111)" stroke="rgb(193,148,111)" stroke-width="1" opacity="1" d="M 451.5 374 L 455 374.5 L 451.5 375 L 451.5 374 Z " /><path fill="rgb(193,148,111)" stroke="rgb(193,148,111)" stroke-width="1" opacity="1" d="M 337.5 375 L 338 377.5 L 337 377.5 L 337.5 375 Z " /><path fill="rgb(193,148,111)" stroke="rgb(193,148,111)" stroke-width="1" opacity="1" d="M 499.5 375 L 499 376.5 L 498.5 378 L 498 376.5 L 499.5 375 Z " /><path fill="rgb(193,148,111)" stroke="rgb(193,148,111)" stroke-width="1" opacity="1" d="M 119.5 377 L 120 379 L 118 378.5 L 119.5 377 Z " /><path fill="rgb(193,148,111)" stroke="rgb(193,148,111)" stroke-width="1" opacity="1" d="M 271.5 377 Q 273.8 376.3 273 378.5 L 274.5 381 L 271.5 377 Z " /><path fill="rgb(193,148,111)" stroke="rgb(193,148,111)" stroke-width="1" opacity="1" d="M 347.5 377 L 349 379.5 L 348 379.5 L 347.5 377 Z " /><path fill="rgb(193,148,111)" stroke="rgb(193,148,111)" stroke-width="1" opacity="1" d="M 181.5 378 L 182 380.5 L 181 380.5 L 181.5 378 Z " /><path fill="rgb(193,148,111)" stroke="rgb(193,148,111)" stroke-width="1" opacity="1" d="M 338.5 380 L 341 386.5 L 340 386.5 L 338.5 380 Z " /><path fill="rgb(193,148,111)" stroke="rgb(193,148,111)" stroke-width="1" opacity="1" d="M 461.5 380 L 463 383.5 L 462 383.5 L 461.5 380 Z " /><path fill="rgb(193,148,111)" stroke="rgb(193,148,111)" stroke-width="1" opacity="1" d="M 349.5 381 L 350.5 383 L 349.5 381 Z " /><path fill="rgb(193,148,111)" stroke="rgb(193,148,111)" stroke-width="1" opacity="1" d="M 275.5 383 L 279 389.5 L 277 388.5 L 275.5 383 Z " /><path fill="rgb(193,148,111)" stroke="rgb(193,148,111)" stroke-width="1" opacity="1" d="M 352.5 386 L 353.5 388 L 352.5 386 Z " /><path fill="rgb(193,148,111)" stroke="rgb(193,148,111)" stroke-width="1" opacity="1" d="M 462.5 389 L 464 393.5 L 463 393.5 L 462.5 389 Z " /><path fill="rgb(193,148,111)" stroke="rgb(193,148,111)" stroke-width="1" opacity="1" d="M 112.5 390 L 112 391.5 L 110.5 394 L 111 392.5 L 112.5 390 Z " /><path fill="rgb(193,148,111)" stroke="rgb(193,148,111)" stroke-width="1" opacity="1" d="M 355.5 390 L 360 393.5 L 361 396.5 L 360 396.5 L 356.5 391 L 355.5 390 Z " /><path fill="rgb(193,148,111)" stroke="rgb(193,148,111)" stroke-width="1" opacity="1" d="M 398.5 390 L 400 392.5 L 399 392.5 L 398.5 390 Z " /><path fill="rgb(193,148,111)" stroke="rgb(193,148,111)" stroke-width="1" opacity="1" d="M 279.5 392 L 280.5 394 L 279.5 392 Z " /><path fill="rgb(193,148,111)" stroke="rgb(193,148,111)" stroke-width="1" opacity="1" d="M 444.5 393 L 442.5 396 L 444.5 393 Z " /><path fill="rgb(193,148,111)" stroke="rgb(193,148,111)" stroke-width="1" opacity="1" d="M 175.5 394 L 176 395.5 L 173 397.5 L 175.5 394 Z " /><path fill="rgb(193,148,111)" stroke="rgb(193,148,111)" stroke-width="1" opacity="1" d="M 342.5 394 L 346 400.5 L 345 400.5 L 342 395.5 L 342.5 394 Z " /><path fill="rgb(193,148,111)" stroke="rgb(193,148,111)" stroke-width="1" opacity="1" d="M 109.5 395 L 110 397.5 L 107.5 401 L 107 399.5 L 109.5 395 Z " /><path fill="rgb(193,148,111)" stroke="rgb(193,148,111)" stroke-width="1" opacity="1" d="M 453.5 396 L 454 400.5 L 453 400.5 L 453.5 396 Z " /><path fill="rgb(193,148,111)" stroke="rgb(193,148,111)" stroke-width="1" opacity="1" d="M 493.5 397 L 494 400.5 L 493 400.5 L 493.5 397 Z " /><path fill="rgb(193,148,111)" stroke="rgb(193,148,111)" stroke-width="1" opacity="1" d="M 360.5 398 L 362 400.5 L 359 402.5 L 361 399.5 L 360.5 398 Z " /><path fill="rgb(193,148,111)" stroke="rgb(193,148,111)" stroke-width="1" opacity="1" d="M 462.5 399 L 459.5 403 L 462.5 399 Z " /><path fill="rgb(193,148,111)" stroke="rgb(193,148,111)" stroke-width="1" opacity="1" d="M 438.5 400 L 439 402 L 437 401.5 L 438.5 400 Z " /><path fill="rgb(193,148,111)" stroke="rgb(193,148,111)" stroke-width="1" opacity="1" d="M 171.5 401 L 172 402.5 L 170.5 406 L 170 403.5 L 171.5 401 Z " /><path fill="rgb(193,148,111)" stroke="rgb(193,148,111)" stroke-width="1" opacity="1" d="M 105.5 402 L 106 403.5 L 104 404.5 L 105.5 402 Z " /><path fill="rgb(193,148,111)" stroke="rgb(193,148,111)" stroke-width="1" opacity="1" d="M 285.5 402 L 286.5 404 L 285.5 402 Z " /><path fill="rgb(193,148,111)" stroke="rgb(193,148,111)" stroke-width="1" opacity="1" d="M 455.5 402 L 458 402.5 L 455.5 403 L 455.5 402 Z " /><path fill="rgb(193,148,111)" stroke="rgb(193,148,111)" stroke-width="1" opacity="1" d="M 437 403 Q 440 401.8 439 405.5 L 437 404.5 L 437 403 Z " /><path fill="rgb(193,148,111)" stroke="rgb(193,148,111)" stroke-width="1" opacity="1" d="M 287.5 405 L 288.5 407 L 287.5 405 Z " /><path fill="rgb(193,148,111)" stroke="rgb(193,148,111)" stroke-width="1" opacity="1" d="M 101.5 407 L 101 408.5 L 99.5 411 L 100 409.5 L 101.5 407 Z " /><path fill="rgb(193,148,111)" stroke="rgb(193,148,111)" stroke-width="1" opacity="1" d="M 405.5 407 L 409.5 412 L 405.5 407 Z " /><path fill="rgb(193,148,111)" stroke="rgb(193,148,111)" stroke-width="1" opacity="1" d="M 438.5 407 L 441 410.5 L 440 410.5 L 438.5 407 Z " /><path fill="rgb(193,148,111)" stroke="rgb(193,148,111)" stroke-width="1" opacity="1" d="M 167.5 408 L 168 410.5 L 165.5 414 L 166 412.5 L 167.5 408 Z " /><path fill="rgb(193,148,111)" stroke="rgb(193,148,111)" stroke-width="1" opacity="1" d="M 489.5 409 L 489 410.5 L 487.5 413 L 485 414.5 L 483.5 417 L 484 415.5 L 486.5 412 Q 488.8 412.8 488 410.5 L 489.5 409 Z " /><path fill="rgb(193,148,111)" stroke="rgb(193,148,111)" stroke-width="1" opacity="1" d="M 290.5 410 L 291.5 412 L 290.5 410 Z " /><path fill="rgb(193,148,111)" stroke="rgb(193,148,111)" stroke-width="1" opacity="1" d="M 440.5 412 L 441 414 Q 443.7 412.9 443 415.5 L 441.5 415 Q 438.4 415.7 440.5 412 Z " /><path fill="rgb(193,148,111)" stroke="rgb(193,148,111)" stroke-width="1" opacity="1" d="M 292.5 413 L 294 415.5 L 292 414.5 L 292.5 413 Z " /><path fill="rgb(193,148,111)" stroke="rgb(193,148,111)" stroke-width="1" opacity="1" d="M 163.5 414 L 163 415.5 L 161.5 418 L 162 416.5 L 163.5 414 Z " /><path fill="rgb(193,148,111)" stroke="rgb(193,148,111)" stroke-width="1" opacity="1" d="M 440.5 416 L 441.5 418 Q 438.7 418.7 440.5 416 Z " /><path fill="rgb(193,148,111)" stroke="rgb(193,148,111)" stroke-width="1" opacity="1" d="M 413.5 418 L 415 425.5 L 417 427.5 L 415.5 427 Q 412.1 427.9 414 422.5 L 413.5 418 Z " /><path fill="rgb(193,148,111)" stroke="rgb(193,148,111)" stroke-width="1" opacity="1" d="M 440.5 419 L 442 424 L 448 426.5 L 446.5 427 L 441 423.5 L 440.5 419 Z " /><path fill="rgb(193,148,111)" stroke="rgb(193,148,111)" stroke-width="1" opacity="1" d="M 480.5 419 L 479.5 421 L 480.5 419 Z " /><path fill="rgb(193,148,111)" stroke="rgb(193,148,111)" stroke-width="1" opacity="1" d="M 94.5 420 L 93.5 422 L 94.5 420 Z " /><path fill="rgb(193,148,111)" stroke="rgb(193,148,111)" stroke-width="1" opacity="1" d="M 296.5 421 L 299 424.5 L 297 423.5 L 296.5 421 Z " /><path fill="rgb(193,148,111)" stroke="rgb(193,148,111)" stroke-width="1" opacity="1" d="M 157.5 422 L 156.5 424 L 155 423.5 L 157.5 422 Z " /><path fill="rgb(193,148,111)" stroke="rgb(193,148,111)" stroke-width="1" opacity="1" d="M 55.5 424 L 56.5 426 L 55.5 424 Z " /><path fill="rgb(193,148,111)" stroke="rgb(193,148,111)" stroke-width="1" opacity="1" d="M 476.5 424 L 472.5 429 L 476.5 424 Z " /><path fill="rgb(193,148,111)" stroke="rgb(193,148,111)" stroke-width="1" opacity="1" d="M 527.5 424 L 526.5 426 L 527.5 424 Z " /><path fill="rgb(193,148,111)" stroke="rgb(193,148,111)" stroke-width="1" opacity="1" d="M 154.5 425 L 155 426.5 L 153 427.5 L 154.5 425 Z " /><path fill="rgb(193,148,111)" stroke="rgb(193,148,111)" stroke-width="1" opacity="1" d="M 88.5 427 L 88 428.5 L 87.5 430 L 87 428.5 L 88.5 427 Z " /><path fill="rgb(193,148,111)" stroke="rgb(193,148,111)" stroke-width="1" opacity="1" d="M 449.5 427 L 453 428.5 L 451.5 428 Q 448.5 428.5 449.5 427 Z " /><path fill="rgb(193,148,111)" stroke="rgb(193,148,111)" stroke-width="1" opacity="1" d="M 152.5 429 L 152 430.5 L 151.5 432 L 151 430.5 L 152.5 429 Z " /><path fill="rgb(193,148,111)" stroke="rgb(193,148,111)" stroke-width="1" opacity="1" d="M 299.5 429 L 303 434.5 L 301.5 435 Q 297.9 433.1 299.5 429 Z " /><path fill="rgb(193,148,111)" stroke="rgb(193,148,111)" stroke-width="1" opacity="1" d="M 454.5 429 L 457 430.5 L 455.5 431 L 454.5 429 Z " /><path fill="rgb(193,148,111)" stroke="rgb(193,148,111)" stroke-width="1" opacity="1" d="M 469.5 429 L 471 429.5 L 468.5 431 L 469.5 429 Z " /><path fill="rgb(193,148,111)" stroke="rgb(193,148,111)" stroke-width="1" opacity="1" d="M 417.5 430 L 419.5 433 L 417.5 430 Z " /><path fill="rgb(193,148,111)" stroke="rgb(193,148,111)" stroke-width="1" opacity="1" d="M 86.5 431 L 85 433.5 L 84.5 435 L 84 433.5 L 86.5 431 Z " /><path fill="rgb(193,148,111)" stroke="rgb(193,148,111)" stroke-width="1" opacity="1" d="M 380.5 431 L 379.5 433 L 380.5 431 Z " /><path fill="rgb(193,148,111)" stroke="rgb(193,148,111)" stroke-width="1" opacity="1" d="M 385.5 432 L 386 433.5 Q 385.3 435.8 381.5 435 L 381.5 434 Q 386 435.3 385.5 432 Z " /><path fill="rgb(193,148,111)" stroke="rgb(193,148,111)" stroke-width="1" opacity="1" d="M 360.5 433 L 364 433.5 L 360.5 434 L 360.5 433 Z " /><path fill="rgb(193,148,111)" stroke="rgb(193,148,111)" stroke-width="1" opacity="1" d="M 61.5 434 L 62.5 436 L 61.5 434 Z " /><path fill="rgb(193,148,111)" stroke="rgb(193,148,111)" stroke-width="1" opacity="1" d="M 304.5 434 L 305.5 436 L 304.5 434 Z " /><path fill="rgb(193,148,111)" stroke="rgb(193,148,111)" stroke-width="1" opacity="1" d="M 365.5 434 Q 367.8 433.3 367 435.5 L 367.5 437 L 365.5 434 Z " /><path fill="rgb(193,148,111)" stroke="rgb(193,148,111)" stroke-width="1" opacity="1" d="M 521.5 434 L 520.5 436 L 521.5 434 Z " /><path fill="rgb(193,148,111)" stroke="rgb(193,148,111)" stroke-width="1" opacity="1" d="M 420.5 435 L 421.5 437 L 420.5 435 Z " /><path fill="rgb(193,148,111)" stroke="rgb(193,148,111)" stroke-width="1" opacity="1" d="M 82.5 436 L 83 438.5 L 82 438.5 L 82.5 436 Z " /><path fill="rgb(193,148,111)" stroke="rgb(193,148,111)" stroke-width="1" opacity="1" d="M 145.5 436 L 145 437.5 L 143.5 440 L 144 438.5 L 145.5 436 Z " /><path fill="rgb(193,148,111)" stroke="rgb(193,148,111)" stroke-width="1" opacity="1" d="M 307.5 436 L 309.5 439 L 307.5 436 Z " /><path fill="rgb(193,148,111)" stroke="rgb(193,148,111)" stroke-width="1" opacity="1" d="M 348.5 436 L 351 436.5 L 348.5 437 L 348.5 436 Z " /><path fill="rgb(193,148,111)" stroke="rgb(193,148,111)" stroke-width="1" opacity="1" d="M 342.5 438 L 345 438.5 L 342.5 439 L 342.5 438 Z " /><path fill="rgb(193,148,111)" stroke="rgb(193,148,111)" stroke-width="1" opacity="1" d="M 368.5 438 L 376.5 447 L 382 450.5 L 379.5 449 L 376.5 448 L 368 439.5 L 368.5 438 Z " /><path fill="rgb(193,148,111)" stroke="rgb(193,148,111)" stroke-width="1" opacity="1" d="M 422.5 439 L 423.5 441 L 422.5 439 Z " /><path fill="rgb(193,148,111)" stroke="rgb(193,148,111)" stroke-width="1" opacity="1" d="M 311.5 440 L 313.5 443 L 311.5 440 Z " /><path fill="rgb(193,148,111)" stroke="rgb(193,148,111)" stroke-width="1" opacity="1" d="M 333.5 440 L 339 440.5 L 333.5 441 L 333.5 440 Z " /><path fill="rgb(193,148,111)" stroke="rgb(193,148,111)" stroke-width="1" opacity="1" d="M 325.5 441 L 330 441.5 L 325.5 442 L 325.5 441 Z " /><path fill="rgb(193,148,111)" stroke="rgb(193,148,111)" stroke-width="1" opacity="1" d="M 66.5 442 L 67.5 444 L 66.5 442 Z " /><path fill="rgb(193,148,111)" stroke="rgb(193,148,111)" stroke-width="1" opacity="1" d="M 321.5 442 L 324 442.5 L 321.5 443 L 321.5 442 Z " /><path fill="rgb(193,148,111)" stroke="rgb(193,148,111)" stroke-width="1" opacity="1" d="M 424.5 442 L 425.5 444 L 424.5 442 Z " /><path fill="rgb(193,148,111)" stroke="rgb(193,148,111)" stroke-width="1" opacity="1" d="M 516.5 442 L 515.5 444 L 516.5 442 Z " /><path fill="rgb(193,148,111)" stroke="rgb(193,148,111)" stroke-width="1" opacity="1" d="M 81.5 445 L 85 447.5 L 85 449.5 L 84.5 454 Q 84.4 447.3 81.5 445 Z " /><path fill="rgb(193,148,111)" stroke="rgb(193,148,111)" stroke-width="1" opacity="1" d="M 147.5 445 L 153 448.5 L 151.5 448 Q 147.5 447.5 147.5 445 Z " /><path fill="rgb(193,148,111)" stroke="rgb(193,148,111)" stroke-width="1" opacity="1" d="M 426.5 446 L 427 447.5 L 425 448.5 L 426.5 446 Z " /><path fill="rgb(193,148,111)" stroke="rgb(193,148,111)" stroke-width="1" opacity="1" d="M 156.5 448 L 155.5 450 L 154 449.5 L 156.5 448 Z " /><path fill="rgb(193,148,111)" stroke="rgb(193,148,111)" stroke-width="1" opacity="1" d="M 71.5 449 L 72.5 451 L 71.5 449 Z " /><path fill="rgb(193,148,111)" stroke="rgb(193,148,111)" stroke-width="1" opacity="1" d="M 158.5 449 L 163 450.5 L 160.5 451 L 158.5 449 Z " /><path fill="rgb(193,148,111)" stroke="rgb(193,148,111)" stroke-width="1" opacity="1" d="M 511.5 449 L 510.5 451 L 511.5 449 Z " /><path fill="rgb(193,148,111)" stroke="rgb(193,148,111)" stroke-width="1" opacity="1" d="M 420.5 450 L 424 450.5 L 420.5 451 L 420.5 450 Z " /><path fill="rgb(193,148,111)" stroke="rgb(193,148,111)" stroke-width="1" opacity="1" d="M 385.5 452 L 394 452.5 L 385.5 453 L 385.5 452 Z " /><path fill="rgb(193,148,111)" stroke="rgb(193,148,111)" stroke-width="1" opacity="1" d="M 74.5 453 L 75.5 455 L 74.5 453 Z " /><path fill="rgb(193,148,111)" stroke="rgb(193,148,111)" stroke-width="1" opacity="1" d="M 508.5 453 L 507.5 455 L 508.5 453 Z " /><path fill="rgb(193,148,111)" stroke="rgb(193,148,111)" stroke-width="1" opacity="1" d="M 77.5 457 L 78.5 459 L 77.5 457 Z " /><path fill="rgb(193,148,111)" stroke="rgb(193,148,111)" stroke-width="1" opacity="1" d="M 505.5 457 L 504.5 459 L 505.5 457 Z " /><path fill="rgb(193,148,111)" stroke="rgb(193,148,111)" stroke-width="1" opacity="1" d="M 182.5 458 L 185 459.5 L 183.5 459 L 182.5 458 Z " /><path fill="rgb(193,148,111)" stroke="rgb(193,148,111)" stroke-width="1" opacity="1" d="M 80.5 461 L 82.5 464 L 80.5 461 Z " /><path fill="rgb(193,148,111)" stroke="rgb(193,148,111)" stroke-width="1" opacity="1" d="M 86.5 461 L 97 468.5 L 94.5 467 L 89 465 L 87.5 462 L 86.5 461 Z " /><path fill="rgb(193,148,111)" stroke="rgb(193,148,111)" stroke-width="1" opacity="1" d="M 191.5 461 L 194 461.5 L 191.5 462 L 191.5 461 Z " /><path fill="rgb(193,148,111)" stroke="rgb(193,148,111)" stroke-width="1" opacity="1" d="M 502.5 461 L 500.5 464 L 502.5 461 Z " /><path fill="rgb(193,148,111)" stroke="rgb(193,148,111)" stroke-width="1" opacity="1" d="M 185.5 466 L 189 466.5 L 185.5 467 L 185.5 466 Z " /><path fill="rgb(193,148,111)" stroke="rgb(193,148,111)" stroke-width="1" opacity="1" d="M 85.5 467 L 88.5 471 L 85.5 467 Z " /><path fill="rgb(193,148,111)" stroke="rgb(193,148,111)" stroke-width="1" opacity="1" d="M 179.5 467 L 182 467.5 L 179.5 468 L 179.5 467 Z " /><path fill="rgb(193,148,111)" stroke="rgb(193,148,111)" stroke-width="1" opacity="1" d="M 497.5 467 L 494.5 471 L 497.5 467 Z " /><path fill="rgb(193,148,111)" stroke="rgb(193,148,111)" stroke-width="1" opacity="1" d="M 99.5 469 L 100.5 471 L 99.5 469 Z " /><path fill="rgb(193,148,111)" stroke="rgb(193,148,111)" stroke-width="1" opacity="1" d="M 102.5 471 L 110 471.5 L 102.5 472 L 102.5 471 Z " /><path fill="rgb(193,148,111)" stroke="rgb(193,148,111)" stroke-width="1" opacity="1" d="M 114.5 471 L 117 471.5 L 114.5 472 L 114.5 471 Z " /><path fill="rgb(193,148,111)" stroke="rgb(193,148,111)" stroke-width="1" opacity="1" d="M 126.5 471 L 131 471.5 L 126.5 472 L 126.5 471 Z " /><path fill="rgb(193,148,111)" stroke="rgb(193,148,111)" stroke-width="1" opacity="1" d="M 132.5 471 L 135 471.5 L 132.5 472 L 132.5 471 Z " /><path fill="rgb(193,148,111)" stroke="rgb(193,148,111)" stroke-width="1" opacity="1" d="M 91.5 474 L 109.5 493 L 91.5 474 Z " /><path fill="rgb(193,148,111)" stroke="rgb(193,148,111)" stroke-width="1" opacity="1" d="M 491.5 474 L 473.5 493 L 491.5 474 Z " /><path fill="rgb(193,148,111)" stroke="rgb(193,148,111)" stroke-width="1" opacity="1" d="M 113.5 495 L 117.5 500 L 113.5 495 Z " /><path fill="rgb(193,148,111)" stroke="rgb(193,148,111)" stroke-width="1" opacity="1" d="M 469.5 495 L 465.5 500 L 469.5 495 Z " /><path fill="rgb(193,148,111)" stroke="rgb(193,148,111)" stroke-width="1" opacity="1" d="M 120.5 501 L 122.5 504 L 120.5 501 Z " /><path fill="rgb(193,148,111)" stroke="rgb(193,148,111)" stroke-width="1" opacity="1" d="M 462.5 501 L 460.5 504 L 462.5 501 Z " /><path fill="rgb(193,148,111)" stroke="rgb(193,148,111)" stroke-width="1" opacity="1" d="M 125.5 505 L 127.5 508 L 125.5 505 Z " /><path fill="rgb(193,148,111)" stroke="rgb(193,148,111)" stroke-width="1" opacity="1" d="M 457.5 505 L 455.5 508 L 457.5 505 Z " /><path fill="rgb(193,148,111)" stroke="rgb(193,148,111)" stroke-width="1" opacity="1" d="M 130.5 509 L 131.5 511 L 130.5 509 Z " /><path fill="rgb(193,148,111)" stroke="rgb(193,148,111)" stroke-width="1" opacity="1" d="M 452.5 509 L 451.5 511 L 452.5 509 Z " /><path fill="rgb(193,148,111)" stroke="rgb(193,148,111)" stroke-width="1" opacity="1" d="M 133.5 511 L 134.5 513 L 133.5 511 Z " /><path fill="rgb(193,148,111)" stroke="rgb(193,148,111)" stroke-width="1" opacity="1" d="M 449.5 511 L 448.5 513 L 449.5 511 Z " /><path fill="rgb(193,148,111)" stroke="rgb(193,148,111)" stroke-width="1" opacity="1" d="M 137.5 514 L 138.5 516 L 137.5 514 Z " /><path fill="rgb(193,148,111)" stroke="rgb(193,148,111)" stroke-width="1" opacity="1" d="M 445.5 514 L 444.5 516 L 445.5 514 Z " /><path fill="rgb(193,148,111)" stroke="rgb(193,148,111)" stroke-width="1" opacity="1" d="M 140.5 516 L 141.5 518 L 140.5 516 Z " /><path fill="rgb(193,148,111)" stroke="rgb(193,148,111)" stroke-width="1" opacity="1" d="M 442.5 516 L 441.5 518 L 442.5 516 Z " /><path fill="rgb(193,148,111)" stroke="rgb(193,148,111)" stroke-width="1" opacity="1" d="M 143.5 518 L 144.5 520 L 143.5 518 Z " /><path fill="rgb(193,148,111)" stroke="rgb(193,148,111)" stroke-width="1" opacity="1" d="M 439.5 518 L 438.5 520 L 439.5 518 Z " /><path fill="rgb(193,148,111)" stroke="rgb(193,148,111)" stroke-width="1" opacity="1" d="M 151.5 523 L 152.5 525 L 151.5 523 Z " /><path fill="rgb(193,148,111)" stroke="rgb(193,148,111)" stroke-width="1" opacity="1" d="M 431.5 523 L 430.5 525 L 431.5 523 Z " /><path fill="rgb(193,148,111)" stroke="rgb(193,148,111)" stroke-width="1" opacity="1" d="M 242.5 558 L 245 558.5 L 242.5 559 L 242.5 558 Z " /><path fill="rgb(193,148,111)" stroke="rgb(193,148,111)" stroke-width="1" opacity="1" d="M 338.5 558 L 341 558.5 L 338.5 559 L 338.5 558 Z " /><path fill="rgb(193,148,111)" stroke="rgb(193,148,111)" stroke-width="1" opacity="1" d="M 255.5 560 L 258 560.5 L 255.5 561 L 255.5 560 Z " /><path fill="rgb(193,148,111)" stroke="rgb(193,148,111)" stroke-width="1" opacity="1" d="M 325.5 560 L 328 560.5 L 325.5 561 L 325.5 560 Z " /><path fill="rgb(193,148,111)" stroke="rgb(193,148,111)" stroke-width="1" opacity="1" d="M 263.5 561 L 268 561.5 L 263.5 562 L 263.5 561 Z " /><path fill="rgb(193,148,111)" stroke="rgb(193,148,111)" stroke-width="1" opacity="1" d="M 315.5 561 L 320 561.5 L 315.5 562 L 315.5 561 Z " /><path fill="rgb(193,148,111)" stroke="rgb(193,148,111)" stroke-width="1" opacity="1" d="M 275.5 562 L 287 562.5 L 275.5 563 L 275.5 562 Z " /><path fill="rgb(193,148,111)" stroke="rgb(193,148,111)" stroke-width="1" opacity="1" d="M 296.5 562 L 308 562.5 L 296.5 563 L 296.5 562 Z " /><path fill="rgb(250,192,144)" stroke="rgb(250,192,144)" stroke-width="1" opacity="1" d="M 287.5 21 L 314.5 22 L 315.5 23 L 324.5 23 L 325.5 24 L 343.5 26 L 371.5 33 L 398.5 43 Q 455.6 68.4 494 112.5 Q 526.3 148.2 545 197.5 L 553 222.5 L 558 245.5 L 560 267.5 L 561 268.5 L 562 296.5 L 561 297.5 L 560 324.5 L 555 353.5 Q 548.8 379.3 539 401.5 Q 513.8 457.3 470.5 495 Q 433 529 380.5 548 L 364.5 553 L 332.5 560 L 315.5 561 L 314.5 562 L 287.5 563 L 286.5 562 L 258.5 561 L 257.5 560 L 250.5 560 Q 244 557 234.5 557 L 211.5 551 L 184.5 541 Q 127.4 515.6 89 471.5 Q 56.7 435.8 38 386.5 L 30 361.5 L 25 338.5 L 23 316.5 L 22 315.5 L 21 287.5 L 22 286.5 L 23 259.5 L 28 230.5 Q 34.2 204.7 44 182.5 Q 69.3 126.7 112.5 89 Q 147.2 57.7 194.5 39 L 211.5 33 L 239.5 26 L 257.5 24 L 258.5 23 L 286.5 22 L 287.5 21 Z M 348 99 L 342 101 L 336 101 L 329 104 L 324 104 L 310 113 L 300 116 L 287 125 L 266 126 L 251 129 L 244 132 L 232 142 L 218 150 L 204 163 L 200 163 L 181 174 L 165 190 L 153 209 Q 154 211 152 210 L 147 216 L 144 224 L 135 238 Q 136 243 133 244 L 132 255 L 130 258 L 130 268 Q 127 271 128 279 L 126 281 L 125 292 L 123 294 Q 122 301 125 304 Q 124 310 127 309 L 131 315 L 131 325 L 136 336 L 136 339 L 140 343 L 140 354 L 133 359 Q 134 361 131 360 L 130 364 Q 129 366 128 364 Q 125 372 119 376 Q 118 382 115 386 Q 116 388 113 387 Q 110 398 103 406 Q 104 408 102 407 L 100 410 L 97 411 Q 94 413 95 420 L 91 424 Q 92 427 90 426 L 84 434 Q 85 437 82 436 L 81 442 L 81 446 L 84 450 L 84 455 L 84 457 L 86 461 Q 85 463 88 462 L 89 465 L 103 472 L 131 472 L 133 472 L 142 471 L 144 471 L 148 470 L 150 470 L 152 469 L 182 468 L 191 466 L 194 467 Q 196 466 195 463 L 194 461 L 186 460 L 181 457 L 177 457 L 161 449 L 158 449 L 156 449 L 144 444 L 143 442 L 146 436 L 148 436 Q 147 433 150 434 L 150 432 L 152 432 L 155 424 L 158 423 Q 157 420 160 421 L 163 416 L 166 414 Q 169 413 168 408 L 171 406 L 172 400 L 176 396 Q 175 392 178 393 L 180 388 L 179 386 L 184 374 L 188 371 L 190 368 Q 189 365 192 366 L 201 351 L 200 348 L 202 345 Q 203 340 200 339 Q 201 332 205 330 L 205 325 L 207 321 L 218 323 L 220 323 L 225 326 Q 227 325 226 328 L 229 329 Q 231 328 230 331 L 233 332 L 234 335 L 241 337 Q 250 339 252 334 L 255 336 L 255 339 L 254 343 Q 257 344 255 346 L 257 349 L 256 351 L 258 359 L 264 364 L 264 366 Q 267 365 266 368 L 266 370 L 275 382 Q 276 390 281 395 Q 280 397 283 396 L 285 403 L 290 409 L 297 424 Q 300 425 298 427 L 300 434 L 311 439 L 314 443 L 324 443 L 331 441 L 339 441 L 348 437 L 351 437 L 353 437 L 365 433 L 368 440 Q 375 448 386 453 L 407 452 L 408 451 L 424 451 L 427 448 L 420 433 L 415 426 Q 415 419 412 416 Q 413 412 410 413 L 403 402 Q 404 397 401 398 L 401 395 L 396 385 L 392 370 L 392 368 Q 390 363 391 355 L 390 354 L 391 342 L 396 338 L 399 342 L 403 353 L 408 356 Q 410 355 409 358 L 414 361 L 416 360 L 417 364 L 420 364 L 425 368 L 427 367 L 433 368 L 443 375 L 458 375 L 460 376 L 462 382 Q 461 391 464 395 L 463 399 L 460 402 L 454 402 L 454 393 L 450 391 L 446 392 L 438 398 L 437 402 Q 437 408 440 411 L 440 413 Q 439 416 442 415 L 442 416 Q 439 415 440 418 L 440 420 L 441 424 L 456 431 L 463 433 L 466 433 L 473 429 L 485 415 L 488 413 L 493 406 L 494 392 L 501 373 Q 503 363 499 360 L 499 350 L 496 341 Q 492 334 484 332 L 479 326 L 474 321 L 470 316 L 462 312 L 456 307 L 456 302 L 453 301 L 447 294 L 442 290 Q 439 291 440 289 L 434 286 L 428 281 L 424 277 Q 420 275 424 273 L 424 268 L 422 263 L 422 261 L 422 250 L 421 249 L 422 247 L 421 241 L 417 238 L 418 235 L 415 229 L 416 221 L 419 217 L 423 218 L 425 218 Q 432 217 436 221 L 439 220 L 441 220 L 444 218 L 447 213 L 451 211 L 456 194 L 459 193 L 458 192 L 458 191 L 457 189 L 457 172 Q 460 170 459 165 L 465 157 L 467 151 L 464 140 L 464 135 L 459 130 L 457 123 L 454 120 Q 455 113 453 111 L 431 101 L 423 101 L 422 100 L 420 101 L 414 99 L 391 99 L 386 102 Q 381 103 380 100 Q 374 99 373 101 L 368 99 Q 362 98 361 100 L 348 99 Z " /><path fill="rgb(250,192,144)" stroke="rgb(250,192,144)" stroke-width="1" opacity="1" d="M 322.5 267 L 324 269.5 L 323 272.5 Q 322.3 277.3 325.5 278 L 331 282.5 L 332 285.5 L 331 286.5 L 332.5 289 L 331 289.5 L 332 290.5 L 332 299.5 L 334 304.5 L 335 313.5 L 333 318.5 L 333 320.5 Q 333.6 326.6 331 329.5 L 334 332.5 L 336 339.5 L 335 344.5 L 336 346.5 L 335 349.5 L 335 351.5 L 335 354.5 L 338 360 Q 340.7 358.9 340 361.5 Q 343.5 363.7 343 369 Q 346.3 367.7 345 372.5 L 355.5 391 L 359 393.5 L 361 400.5 L 355.5 403 L 352.5 402 L 349.5 403 L 346 400.5 L 341 392.5 L 340 387.5 L 341 384.5 L 338 379.5 L 338 375 L 335 373.5 L 329 360.5 L 326 357.5 L 326 354.5 L 324 351 Q 320.7 352.3 322 347.5 L 320 343.5 Q 320.8 341.3 318.5 342 L 318 339.5 L 300 311.5 Q 300.9 303.1 298 298.5 L 290.5 289 Q 287.9 289.7 289 287 L 287 287 L 287 284.5 L 284 279.5 L 309.5 270 L 313.5 271 L 318.5 270 L 322.5 267 Z " /><path fill="rgb(250,192,144)" stroke="rgb(250,192,144)" stroke-width="1" opacity="1" d="M 381.5 431 L 385 432 L 385 434 L 380 434 L 381.5 431 Z " /><path fill="rgb(38,29,22)" stroke="rgb(38,29,22)" stroke-width="1" opacity="0.9294117647058824" d="M 270.5 21 L 275 21.5 L 270.5 22 L 270.5 21 Z " /><path fill="rgb(38,29,22)" stroke="rgb(38,29,22)" stroke-width="1" opacity="0.9294117647058824" d="M 308.5 21 L 313 21.5 L 308.5 22 L 308.5 21 Z " /><path fill="rgb(38,29,22)" stroke="rgb(38,29,22)" stroke-width="1" opacity="0.9294117647058824" d="M 260.5 22 L 263 22.5 L 260.5 23 L 260.5 22 Z " /><path fill="rgb(38,29,22)" stroke="rgb(38,29,22)" stroke-width="1" opacity="0.9294117647058824" d="M 320.5 22 L 323 22.5 L 320.5 23 L 320.5 22 Z " /><path fill="rgb(38,29,22)" stroke="rgb(38,29,22)" stroke-width="1" opacity="0.9294117647058824" d="M 252.5 23 L 255 23.5 L 252.5 24 L 252.5 23 Z " /><path fill="rgb(38,29,22)" stroke="rgb(38,29,22)" stroke-width="1" opacity="0.9294117647058824" d="M 328.5 23 L 331 23.5 L 328.5 24 L 328.5 23 Z " /><path fill="rgb(38,29,22)" stroke="rgb(38,29,22)" stroke-width="1" opacity="0.9294117647058824" d="M 136.5 69 L 135.5 71 L 136.5 69 Z " /><path fill="rgb(38,29,22)" stroke="rgb(38,29,22)" stroke-width="1" opacity="0.9294117647058824" d="M 446.5 69 L 447.5 71 L 446.5 69 Z " /><path fill="rgb(38,29,22)" stroke="rgb(38,29,22)" stroke-width="1" opacity="0.9294117647058824" d="M 129.5 74 L 128.5 76 L 129.5 74 Z " /><path fill="rgb(38,29,22)" stroke="rgb(38,29,22)" stroke-width="1" opacity="0.9294117647058824" d="M 453.5 74 L 454.5 76 L 453.5 74 Z " /><path fill="rgb(38,29,22)" stroke="rgb(38,29,22)" stroke-width="1" opacity="0.9294117647058824" d="M 124.5 78 L 123.5 80 L 124.5 78 Z " /><path fill="rgb(38,29,22)" stroke="rgb(38,29,22)" stroke-width="1" opacity="0.9294117647058824" d="M 458.5 78 L 459.5 80 L 458.5 78 Z " /><path fill="rgb(38,29,22)" stroke="rgb(38,29,22)" stroke-width="1" opacity="0.9294117647058824" d="M 119.5 82 L 118.5 84 L 119.5 82 Z " /><path fill="rgb(38,29,22)" stroke="rgb(38,29,22)" stroke-width="1" opacity="0.9294117647058824" d="M 463.5 82 L 464.5 84 L 463.5 82 Z " /><path fill="rgb(38,29,22)" stroke="rgb(38,29,22)" stroke-width="1" opacity="0.9294117647058824" d="M 113.5 87 L 110.5 91 L 113.5 87 Z " /><path fill="rgb(38,29,22)" stroke="rgb(38,29,22)" stroke-width="1" opacity="0.9294117647058824" d="M 469.5 87 L 472.5 91 L 469.5 87 Z " /><path fill="rgb(38,29,22)" stroke="rgb(38,29,22)" stroke-width="1" opacity="0.9294117647058824" d="M 354.5 100 L 362 100.5 L 354.5 101 L 354.5 100 Z " /><path fill="rgb(38,29,22)" stroke="rgb(38,29,22)" stroke-width="1" opacity="0.9294117647058824" d="M 367.5 100 L 371 100.5 L 367.5 101 L 367.5 100 Z " /><path fill="rgb(38,29,22)" stroke="rgb(38,29,22)" stroke-width="1" opacity="0.9294117647058824" d="M 414.5 100 L 418 100.5 L 414.5 101 L 414.5 100 Z " /><path fill="rgb(38,29,22)" stroke="rgb(38,29,22)" stroke-width="1" opacity="0.9294117647058824" d="M 382.5 102 L 386 102.5 L 382.5 103 L 382.5 102 Z " /><path fill="rgb(38,29,22)" stroke="rgb(38,29,22)" stroke-width="1" opacity="0.9294117647058824" d="M 324.5 104 L 329 104.5 L 324.5 105 L 324.5 104 Z " /><path fill="rgb(38,29,22)" stroke="rgb(38,29,22)" stroke-width="1" opacity="0.9294117647058824" d="M 319.5 106 L 318.5 108 L 319.5 106 Z " /><path fill="rgb(38,29,22)" stroke="rgb(38,29,22)" stroke-width="1" opacity="0.9294117647058824" d="M 316.5 108 L 315.5 110 L 316.5 108 Z " /><path fill="rgb(38,29,22)" stroke="rgb(38,29,22)" stroke-width="1" opacity="0.9294117647058824" d="M 90.5 110 L 88.5 113 L 90.5 110 Z " /><path fill="rgb(38,29,22)" stroke="rgb(38,29,22)" stroke-width="1" opacity="0.9294117647058824" d="M 492.5 110 L 494.5 113 L 492.5 110 Z " /><path fill="rgb(38,29,22)" stroke="rgb(38,29,22)" stroke-width="1" opacity="0.9294117647058824" d="M 312.5 111 L 311.5 113 L 310 112.5 L 312.5 111 Z " /><path fill="rgb(38,29,22)" stroke="rgb(38,29,22)" stroke-width="1" opacity="0.9294117647058824" d="M 453.5 115 L 454 117.5 L 453 117.5 L 453.5 115 Z " /><path fill="rgb(38,29,22)" stroke="rgb(38,29,22)" stroke-width="1" opacity="0.9294117647058824" d="M 84.5 117 L 82.5 120 L 84.5 117 Z " /><path fill="rgb(38,29,22)" stroke="rgb(38,29,22)" stroke-width="1" opacity="0.9294117647058824" d="M 498.5 117 L 500.5 120 L 498.5 117 Z " /><path fill="rgb(38,29,22)" stroke="rgb(38,29,22)" stroke-width="1" opacity="0.9294117647058824" d="M 297.5 118 L 296.5 120 L 297.5 118 Z " /><path fill="rgb(38,29,22)" stroke="rgb(38,29,22)" stroke-width="1" opacity="0.9294117647058824" d="M 293.5 121 L 292.5 123 L 293.5 121 Z " /><path fill="rgb(38,29,22)" stroke="rgb(38,29,22)" stroke-width="1" opacity="0.9294117647058824" d="M 79.5 123 L 78.5 125 L 79.5 123 Z " /><path fill="rgb(38,29,22)" stroke="rgb(38,29,22)" stroke-width="1" opacity="0.9294117647058824" d="M 503.5 123 L 504.5 125 L 503.5 123 Z " /><path fill="rgb(38,29,22)" stroke="rgb(38,29,22)" stroke-width="1" opacity="0.9294117647058824" d="M 456.5 124 L 458 127.5 L 457 127.5 L 456.5 124 Z " /><path fill="rgb(38,29,22)" stroke="rgb(38,29,22)" stroke-width="1" opacity="0.9294117647058824" d="M 266.5 126 L 273 126.5 L 266.5 127 L 266.5 126 Z " /><path fill="rgb(38,29,22)" stroke="rgb(38,29,22)" stroke-width="1" opacity="0.9294117647058824" d="M 76.5 127 L 74.5 130 L 76.5 127 Z " /><path fill="rgb(38,29,22)" stroke="rgb(38,29,22)" stroke-width="1" opacity="0.9294117647058824" d="M 506.5 127 L 508.5 130 L 506.5 127 Z " /><path fill="rgb(38,29,22)" stroke="rgb(38,29,22)" stroke-width="1" opacity="0.9294117647058824" d="M 458.5 129 L 459.5 131 L 458.5 129 Z " /><path fill="rgb(38,29,22)" stroke="rgb(38,29,22)" stroke-width="1" opacity="0.9294117647058824" d="M 73.5 131 L 72.5 133 L 73.5 131 Z " /><path fill="rgb(38,29,22)" stroke="rgb(38,29,22)" stroke-width="1" opacity="0.9294117647058824" d="M 509.5 131 L 510.5 133 L 509.5 131 Z " /><path fill="rgb(38,29,22)" stroke="rgb(38,29,22)" stroke-width="1" opacity="0.9294117647058824" d="M 460.5 132 L 462.5 135 L 460.5 132 Z " /><path fill="rgb(38,29,22)" stroke="rgb(38,29,22)" stroke-width="1" opacity="0.9294117647058824" d="M 236.5 137 L 231.5 143 L 236.5 137 Z " /><path fill="rgb(38,29,22)" stroke="rgb(38,29,22)" stroke-width="1" opacity="0.9294117647058824" d="M 68.5 138 L 67.5 140 L 68.5 138 Z " /><path fill="rgb(38,29,22)" stroke="rgb(38,29,22)" stroke-width="1" opacity="0.9294117647058824" d="M 514.5 138 L 515.5 140 L 514.5 138 Z " /><path fill="rgb(38,29,22)" stroke="rgb(38,29,22)" stroke-width="1" opacity="0.9294117647058824" d="M 464.5 141 L 465 144.5 L 464 144.5 L 464.5 141 Z " /><path fill="rgb(38,29,22)" stroke="rgb(38,29,22)" stroke-width="1" opacity="0.9294117647058824" d="M 227.5 144 L 226.5 146 L 227.5 144 Z " /><path fill="rgb(38,29,22)" stroke="rgb(38,29,22)" stroke-width="1" opacity="0.9294117647058824" d="M 465.5 147 L 467 149.5 L 466 149.5 L 465.5 147 Z " /><path fill="rgb(38,29,22)" stroke="rgb(38,29,22)" stroke-width="1" opacity="0.9294117647058824" d="M 219.5 149 L 218.5 151 L 219.5 149 Z " /><path fill="rgb(38,29,22)" stroke="rgb(38,29,22)" stroke-width="1" opacity="0.9294117647058824" d="M 462.5 157 L 462 158.5 L 461.5 161 L 461 158.5 L 462.5 157 Z " /><path fill="rgb(38,29,22)" stroke="rgb(38,29,22)" stroke-width="1" opacity="0.9294117647058824" d="M 190.5 168 L 189.5 170 L 190.5 168 Z " /><path fill="rgb(38,29,22)" stroke="rgb(38,29,22)" stroke-width="1" opacity="0.9294117647058824" d="M 187.5 170 L 186.5 172 L 187.5 170 Z " /><path fill="rgb(38,29,22)" stroke="rgb(38,29,22)" stroke-width="1" opacity="0.9294117647058824" d="M 164.5 191 L 163.5 193 L 164.5 191 Z " /><path fill="rgb(38,29,22)" stroke="rgb(38,29,22)" stroke-width="1" opacity="0.9294117647058824" d="M 457.5 192 L 458 194 L 456 193.5 L 457.5 192 Z " /><path fill="rgb(38,29,22)" stroke="rgb(38,29,22)" stroke-width="1" opacity="0.9294117647058824" d="M 161.5 196 L 160.5 198 L 161.5 196 Z " /><path fill="rgb(38,29,22)" stroke="rgb(38,29,22)" stroke-width="1" opacity="0.9294117647058824" d="M 446.5 212 L 447 213.5 L 445 214.5 L 446.5 212 Z " /><path fill="rgb(38,29,22)" stroke="rgb(38,29,22)" stroke-width="1" opacity="0.9294117647058824" d="M 417.5 216 L 416.5 218 L 417.5 216 Z " /><path fill="rgb(38,29,22)" stroke="rgb(38,29,22)" stroke-width="1" opacity="0.9294117647058824" d="M 444.5 216 L 443.5 218 L 442 217.5 L 444.5 216 Z " /><path fill="rgb(38,29,22)" stroke="rgb(38,29,22)" stroke-width="1" opacity="0.9294117647058824" d="M 434.5 219 L 438 219.5 L 434.5 220 L 434.5 219 Z " /><path fill="rgb(38,29,22)" stroke="rgb(38,29,22)" stroke-width="1" opacity="0.9294117647058824" d="M 415.5 220 L 416 224.5 L 415 224.5 L 415.5 220 Z " /><path fill="rgb(38,29,22)" stroke="rgb(38,29,22)" stroke-width="1" opacity="0.9294117647058824" d="M 143.5 225 L 142.5 227 L 143.5 225 Z " /><path fill="rgb(38,29,22)" stroke="rgb(38,29,22)" stroke-width="1" opacity="0.9294117647058824" d="M 417.5 238 L 418.5 240 L 417.5 238 Z " /><path fill="rgb(38,29,22)" stroke="rgb(38,29,22)" stroke-width="1" opacity="0.9294117647058824" d="M 135.5 239 L 136 241.5 L 135 241.5 L 135.5 239 Z " /><path fill="rgb(38,29,22)" stroke="rgb(38,29,22)" stroke-width="1" opacity="0.9294117647058824" d="M 133.5 244 L 134 249.5 L 133 249.5 L 133.5 244 Z " /><path fill="rgb(38,29,22)" stroke="rgb(38,29,22)" stroke-width="1" opacity="0.9294117647058824" d="M 421.5 246 L 421 247.5 L 420.5 250 L 420 247.5 L 421.5 246 Z " /><path fill="rgb(38,29,22)" stroke="rgb(38,29,22)" stroke-width="1" opacity="0.9294117647058824" d="M 23.5 252 L 24 254.5 L 23 254.5 L 23.5 252 Z " /><path fill="rgb(38,29,22)" stroke="rgb(38,29,22)" stroke-width="1" opacity="0.9294117647058824" d="M 559.5 252 L 560 254.5 L 559 254.5 L 559.5 252 Z " /><path fill="rgb(38,29,22)" stroke="rgb(38,29,22)" stroke-width="1" opacity="0.9294117647058824" d="M 22.5 260 L 23 262.5 L 22 262.5 L 22.5 260 Z " /><path fill="rgb(38,29,22)" stroke="rgb(38,29,22)" stroke-width="1" opacity="0.9294117647058824" d="M 560.5 260 L 561 262.5 L 560 262.5 L 560.5 260 Z " /><path fill="rgb(38,29,22)" stroke="rgb(38,29,22)" stroke-width="1" opacity="0.9294117647058824" d="M 321.5 266 L 325 268.5 L 322.5 267 L 321.5 266 Z " /><path fill="rgb(38,29,22)" stroke="rgb(38,29,22)" stroke-width="1" opacity="0.9294117647058824" d="M 129.5 268 L 130 270.5 L 129 270.5 L 129.5 268 Z " /><path fill="rgb(38,29,22)" stroke="rgb(38,29,22)" stroke-width="1" opacity="0.9294117647058824" d="M 317.5 268 L 316.5 270 L 314 269.5 L 317.5 268 Z " /><path fill="rgb(38,29,22)" stroke="rgb(38,29,22)" stroke-width="1" opacity="0.9294117647058824" d="M 305.5 270 L 304.5 272 L 305.5 270 Z " /><path fill="rgb(38,29,22)" stroke="rgb(38,29,22)" stroke-width="1" opacity="0.9294117647058824" d="M 21.5 271 L 22 274.5 L 21 274.5 L 21.5 271 Z " /><path fill="rgb(38,29,22)" stroke="rgb(38,29,22)" stroke-width="1" opacity="0.9294117647058824" d="M 561.5 271 L 562 274.5 L 561 274.5 L 561.5 271 Z " /><path fill="rgb(38,29,22)" stroke="rgb(38,29,22)" stroke-width="1" opacity="0.9294117647058824" d="M 296.5 273 L 298 273.5 L 295.5 275 L 296.5 273 Z " /><path fill="rgb(38,29,22)" stroke="rgb(38,29,22)" stroke-width="1" opacity="0.9294117647058824" d="M 324.5 276 L 328 278.5 L 326.5 278 L 324.5 276 Z " /><path fill="rgb(38,29,22)" stroke="rgb(38,29,22)" stroke-width="1" opacity="0.9294117647058824" d="M 284.5 277 L 284 278.5 L 285 280.5 L 283 279.5 L 284.5 277 Z " /><path fill="rgb(38,29,22)" stroke="rgb(38,29,22)" stroke-width="1" opacity="0.9294117647058824" d="M 128.5 278 L 127.5 280 L 128.5 278 Z " /><path fill="rgb(38,29,22)" stroke="rgb(38,29,22)" stroke-width="1" opacity="0.9294117647058824" d="M 424.5 278 L 425.5 280 L 424.5 278 Z " /><path fill="rgb(38,29,22)" stroke="rgb(38,29,22)" stroke-width="1" opacity="0.9294117647058824" d="M 426.5 281 L 429 282.5 L 427.5 282 L 426.5 281 Z " /><path fill="rgb(38,29,22)" stroke="rgb(38,29,22)" stroke-width="1" opacity="0.9294117647058824" d="M 126.5 283 L 127 285.5 L 126 285.5 L 126.5 283 Z " /><path fill="rgb(38,29,22)" stroke="rgb(38,29,22)" stroke-width="1" opacity="0.9294117647058824" d="M 286.5 284 L 287 286.5 L 286 286.5 L 286.5 284 Z " /><path fill="rgb(38,29,22)" stroke="rgb(38,29,22)" stroke-width="1" opacity="0.9294117647058824" d="M 431.5 284 L 433.5 287 L 431.5 284 Z " /><path fill="rgb(38,29,22)" stroke="rgb(38,29,22)" stroke-width="1" opacity="0.9294117647058824" d="M 436.5 287 L 439 288.5 L 437.5 288 L 436.5 287 Z " /><path fill="rgb(38,29,22)" stroke="rgb(38,29,22)" stroke-width="1" opacity="0.9294117647058824" d="M 290.5 289 L 292 291.5 L 290 290.5 L 290.5 289 Z " /><path fill="rgb(38,29,22)" stroke="rgb(38,29,22)" stroke-width="1" opacity="0.9294117647058824" d="M 332.5 290 L 333 296.5 L 332 296.5 L 332.5 290 Z " /><path fill="rgb(38,29,22)" stroke="rgb(38,29,22)" stroke-width="1" opacity="0.9294117647058824" d="M 439.5 290 L 442 290.5 L 439.5 291 L 439.5 290 Z " /><path fill="rgb(38,29,22)" stroke="rgb(38,29,22)" stroke-width="1" opacity="0.9294117647058824" d="M 125.5 291 L 124.5 293 L 125.5 291 Z " /><path fill="rgb(38,29,22)" stroke="rgb(38,29,22)" stroke-width="1" opacity="0.9294117647058824" d="M 443.5 292 L 444.5 294 L 443.5 292 Z " /><path fill="rgb(38,29,22)" stroke="rgb(38,29,22)" stroke-width="1" opacity="0.9294117647058824" d="M 293.5 293 L 294.5 295 L 293.5 293 Z " /><path fill="rgb(38,29,22)" stroke="rgb(38,29,22)" stroke-width="1" opacity="0.9294117647058824" d="M 334.5 304 L 335 309.5 L 334 309.5 L 334.5 304 Z " /><path fill="rgb(38,29,22)" stroke="rgb(38,29,22)" stroke-width="1" opacity="0.9294117647058824" d="M 455.5 305 L 458 308.5 L 455 306.5 L 455.5 305 Z " /><path fill="rgb(38,29,22)" stroke="rgb(38,29,22)" stroke-width="1" opacity="0.9294117647058824" d="M 126.5 308 L 130.5 313 L 126.5 308 Z " /><path fill="rgb(38,29,22)" stroke="rgb(38,29,22)" stroke-width="1" opacity="0.9294117647058824" d="M 21.5 309 L 22 312.5 L 21 312.5 L 21.5 309 Z " /><path fill="rgb(38,29,22)" stroke="rgb(38,29,22)" stroke-width="1" opacity="0.9294117647058824" d="M 561.5 309 L 562 312.5 L 561 312.5 L 561.5 309 Z " /><path fill="rgb(38,29,22)" stroke="rgb(38,29,22)" stroke-width="1" opacity="0.9294117647058824" d="M 131.5 314 L 132 323.5 L 131 323.5 L 131.5 314 Z " /><path fill="rgb(38,29,22)" stroke="rgb(38,29,22)" stroke-width="1" opacity="0.9294117647058824" d="M 301.5 314 L 304 317.5 L 301 315.5 L 301.5 314 Z " /><path fill="rgb(38,29,22)" stroke="rgb(38,29,22)" stroke-width="1" opacity="0.9294117647058824" d="M 334.5 315 L 335 317.5 L 334 317.5 L 334.5 315 Z " /><path fill="rgb(38,29,22)" stroke="rgb(38,29,22)" stroke-width="1" opacity="0.9294117647058824" d="M 305.5 320 L 310 327.5 L 308 326.5 L 306 323.5 L 305.5 320 Z " /><path fill="rgb(38,29,22)" stroke="rgb(38,29,22)" stroke-width="1" opacity="0.9294117647058824" d="M 22.5 321 L 23 323.5 L 22 323.5 L 22.5 321 Z " /><path fill="rgb(38,29,22)" stroke="rgb(38,29,22)" stroke-width="1" opacity="0.9294117647058824" d="M 560.5 321 L 561 323.5 L 560 323.5 L 560.5 321 Z " /><path fill="rgb(38,29,22)" stroke="rgb(38,29,22)" stroke-width="1" opacity="0.9294117647058824" d="M 219.5 322 L 220.5 324 L 219.5 322 Z " /><path fill="rgb(38,29,22)" stroke="rgb(38,29,22)" stroke-width="1" opacity="0.9294117647058824" d="M 475.5 322 L 477 324.5 L 476 324.5 L 475.5 322 Z " /><path fill="rgb(38,29,22)" stroke="rgb(38,29,22)" stroke-width="1" opacity="0.9294117647058824" d="M 224.5 323 L 226 323.5 L 224 324.5 L 228 326.5 L 229 328.5 L 227 327.5 Q 227.8 324.9 224.5 326 Q 221.5 324.5 224.5 323 Z " /><path fill="rgb(38,29,22)" stroke="rgb(38,29,22)" stroke-width="1" opacity="0.9294117647058824" d="M 478.5 325 L 480 327.5 L 478 326.5 L 478.5 325 Z " /><path fill="rgb(38,29,22)" stroke="rgb(38,29,22)" stroke-width="1" opacity="0.9294117647058824" d="M 332.5 326 Q 331.9 331.1 335 332.5 L 332 330.5 L 332.5 326 Z " /><path fill="rgb(38,29,22)" stroke="rgb(38,29,22)" stroke-width="1" opacity="0.9294117647058824" d="M 204.5 328 L 205 329.5 L 203 330.5 L 204.5 328 Z " /><path fill="rgb(38,29,22)" stroke="rgb(38,29,22)" stroke-width="1" opacity="0.9294117647058824" d="M 23.5 329 L 24 331.5 L 23 331.5 L 23.5 329 Z " /><path fill="rgb(38,29,22)" stroke="rgb(38,29,22)" stroke-width="1" opacity="0.9294117647058824" d="M 559.5 329 L 560 331.5 L 559 331.5 L 559.5 329 Z " /><path fill="rgb(38,29,22)" stroke="rgb(38,29,22)" stroke-width="1" opacity="0.9294117647058824" d="M 481.5 330 L 483.5 333 L 481.5 330 Z " /><path fill="rgb(38,29,22)" stroke="rgb(38,29,22)" stroke-width="1" opacity="0.9294117647058824" d="M 235.5 334 L 236.5 336 L 235.5 334 Z " /><path fill="rgb(38,29,22)" stroke="rgb(38,29,22)" stroke-width="1" opacity="0.9294117647058824" d="M 250.5 334 L 249.5 336 L 250.5 334 Z " /><path fill="rgb(38,29,22)" stroke="rgb(38,29,22)" stroke-width="1" opacity="0.9294117647058824" d="M 252.5 334 L 256 335.5 L 255.5 343 L 255 335 Q 251.7 335.8 252.5 334 Z " /><path fill="rgb(38,29,22)" stroke="rgb(38,29,22)" stroke-width="1" opacity="0.9294117647058824" d="M 136.5 335 L 137 337.5 L 136 337.5 L 136.5 335 Z " /><path fill="rgb(38,29,22)" stroke="rgb(38,29,22)" stroke-width="1" opacity="0.9294117647058824" d="M 314.5 335 L 315.5 337 L 314.5 335 Z " /><path fill="rgb(38,29,22)" stroke="rgb(38,29,22)" stroke-width="1" opacity="0.9294117647058824" d="M 489.5 335 L 491.5 338 L 489.5 335 Z " /><path fill="rgb(38,29,22)" stroke="rgb(38,29,22)" stroke-width="1" opacity="0.9294117647058824" d="M 242.5 336 L 248 336.5 L 242.5 337 L 242.5 336 Z " /><path fill="rgb(38,29,22)" stroke="rgb(38,29,22)" stroke-width="1" opacity="0.9294117647058824" d="M 392.5 337 L 392 338.5 L 391.5 340 L 391 338.5 L 392.5 337 Z " /><path fill="rgb(38,29,22)" stroke="rgb(38,29,22)" stroke-width="1" opacity="0.9294117647058824" d="M 493.5 338 L 494.5 340 L 493.5 338 Z " /><path fill="rgb(38,29,22)" stroke="rgb(38,29,22)" stroke-width="1" opacity="0.9294117647058824" d="M 397.5 339 L 401 344.5 L 400 344.5 L 397.5 339 Z " /><path fill="rgb(38,29,22)" stroke="rgb(38,29,22)" stroke-width="1" opacity="0.9294117647058824" d="M 317.5 340 L 319 342.5 L 317 341.5 L 317.5 340 Z " /><path fill="rgb(38,29,22)" stroke="rgb(38,29,22)" stroke-width="1" opacity="0.9294117647058824" d="M 319.5 345 L 324 352.5 L 321 350.5 Q 321.4 345.8 319.5 345 Z " /><path fill="rgb(38,29,22)" stroke="rgb(38,29,22)" stroke-width="1" opacity="0.9294117647058824" d="M 401.5 346 L 403 348.5 L 401 349 L 401.5 346 Z " /><path fill="rgb(38,29,22)" stroke="rgb(38,29,22)" stroke-width="1" opacity="0.9294117647058824" d="M 256.5 347 L 258 349.5 L 257 349.5 L 256.5 347 Z " /><path fill="rgb(38,29,22)" stroke="rgb(38,29,22)" stroke-width="1" opacity="0.9294117647058824" d="M 140.5 348 L 141 353.5 L 139 354.5 L 140.5 348 Z " /><path fill="rgb(38,29,22)" stroke="rgb(38,29,22)" stroke-width="1" opacity="0.9294117647058824" d="M 389.5 349 L 390 356.5 L 389 356.5 L 389.5 349 Z " /><path fill="rgb(38,29,22)" stroke="rgb(38,29,22)" stroke-width="1" opacity="0.9294117647058824" d="M 403.5 351 L 404.5 353 L 403.5 351 Z " /><path fill="rgb(38,29,22)" stroke="rgb(38,29,22)" stroke-width="1" opacity="0.9294117647058824" d="M 196.5 357 L 195.5 359 L 196.5 357 Z " /><path fill="rgb(38,29,22)" stroke="rgb(38,29,22)" stroke-width="1" opacity="0.9294117647058824" d="M 258.5 357 Q 260.8 356.3 260 358.5 L 262.5 362 L 258.5 357 Z " /><path fill="rgb(38,29,22)" stroke="rgb(38,29,22)" stroke-width="1" opacity="0.9294117647058824" d="M 134.5 358 L 135 360 L 133 359.5 L 134.5 358 Z " /><path fill="rgb(38,29,22)" stroke="rgb(38,29,22)" stroke-width="1" opacity="0.9294117647058824" d="M 327.5 359 L 329 361.5 L 327 360.5 L 327.5 359 Z " /><path fill="rgb(38,29,22)" stroke="rgb(38,29,22)" stroke-width="1" opacity="0.9294117647058824" d="M 390.5 360 L 391 364.5 L 390 364.5 L 390.5 360 Z " /><path fill="rgb(38,29,22)" stroke="rgb(38,29,22)" stroke-width="1" opacity="0.9294117647058824" d="M 416.5 360 L 418.5 363 L 416 362 L 416.5 360 Z " /><path fill="rgb(38,29,22)" stroke="rgb(38,29,22)" stroke-width="1" opacity="0.9294117647058824" d="M 131.5 361 L 130.5 363 L 131.5 361 Z " /><path fill="rgb(38,29,22)" stroke="rgb(38,29,22)" stroke-width="1" opacity="0.9294117647058824" d="M 129.5 364 L 130 366 L 127 365.5 L 129.5 364 Z " /><path fill="rgb(38,29,22)" stroke="rgb(38,29,22)" stroke-width="1" opacity="0.9294117647058824" d="M 191.5 364 L 190.5 366 L 191.5 364 Z " /><path fill="rgb(38,29,22)" stroke="rgb(38,29,22)" stroke-width="1" opacity="0.9294117647058824" d="M 331.5 367 L 332.5 369 L 331.5 367 Z " /><path fill="rgb(38,29,22)" stroke="rgb(38,29,22)" stroke-width="1" opacity="0.9294117647058824" d="M 188.5 368 L 184.5 373 L 188.5 368 Z " /><path fill="rgb(38,29,22)" stroke="rgb(38,29,22)" stroke-width="1" opacity="0.9294117647058824" d="M 434.5 368 L 435.5 370 Q 432.7 370.7 434.5 368 Z " /><path fill="rgb(38,29,22)" stroke="rgb(38,29,22)" stroke-width="1" opacity="0.9294117647058824" d="M 345.5 369 L 346 372.5 L 345 372.5 L 345.5 369 Z " /><path fill="rgb(38,29,22)" stroke="rgb(38,29,22)" stroke-width="1" opacity="0.9294117647058824" d="M 123.5 372 L 125 372.5 L 122.5 374 L 123.5 372 Z " /><path fill="rgb(38,29,22)" stroke="rgb(38,29,22)" stroke-width="1" opacity="0.9294117647058824" d="M 334.5 372 L 337 375.5 L 334 373.5 L 334.5 372 Z " /><path fill="rgb(38,29,22)" stroke="rgb(38,29,22)" stroke-width="1" opacity="0.9294117647058824" d="M 455.5 374 L 458 374.5 L 455.5 375 L 455.5 374 Z " /><path fill="rgb(38,29,22)" stroke="rgb(38,29,22)" stroke-width="1" opacity="0.9294117647058824" d="M 271.5 375 L 274 378.5 L 273 378.5 Q 273.7 375.9 271 377 L 271.5 375 Z " /><path fill="rgb(38,29,22)" stroke="rgb(38,29,22)" stroke-width="1" opacity="0.9294117647058824" d="M 459.5 375 L 461.5 378 L 459.5 375 Z " /><path fill="rgb(38,29,22)" stroke="rgb(38,29,22)" stroke-width="1" opacity="0.9294117647058824" d="M 497.5 377 L 498 381.5 L 497 381.5 L 497.5 377 Z " /><path fill="rgb(38,29,22)" stroke="rgb(38,29,22)" stroke-width="1" opacity="0.9294117647058824" d="M 275.5 380 L 276 382.5 L 275 382.5 L 275.5 380 Z " /><path fill="rgb(38,29,22)" stroke="rgb(38,29,22)" stroke-width="1" opacity="0.9294117647058824" d="M 116.5 384 L 116 385.5 L 114.5 388 L 115 386.5 L 116.5 384 Z " /><path fill="rgb(38,29,22)" stroke="rgb(38,29,22)" stroke-width="1" opacity="0.9294117647058824" d="M 462.5 384 L 463 386.5 L 462 386.5 L 462.5 384 Z " /><path fill="rgb(38,29,22)" stroke="rgb(38,29,22)" stroke-width="1" opacity="0.9294117647058824" d="M 495.5 386 L 496 388.5 L 494 389.5 L 495.5 386 Z " /><path fill="rgb(38,29,22)" stroke="rgb(38,29,22)" stroke-width="1" opacity="0.9294117647058824" d="M 462.5 388 L 463.5 390 L 462.5 388 Z " /><path fill="rgb(38,29,22)" stroke="rgb(38,29,22)" stroke-width="1" opacity="0.9294117647058824" d="M 340.5 390 L 342 393.5 L 340 392.5 L 340.5 390 Z " /><path fill="rgb(38,29,22)" stroke="rgb(38,29,22)" stroke-width="1" opacity="0.9294117647058824" d="M 357.5 390 Q 359.8 389.3 359 391.5 L 357.5 390 Z " /><path fill="rgb(38,29,22)" stroke="rgb(38,29,22)" stroke-width="1" opacity="0.9294117647058824" d="M 177.5 391 L 175.5 394 L 177.5 391 Z " /><path fill="rgb(38,29,22)" stroke="rgb(38,29,22)" stroke-width="1" opacity="0.9294117647058824" d="M 451.5 392 L 454 395.5 L 453 395.5 L 451.5 392 Z " /><path fill="rgb(38,29,22)" stroke="rgb(38,29,22)" stroke-width="1" opacity="0.9294117647058824" d="M 111.5 393 L 110.5 395 L 111.5 393 Z " /><path fill="rgb(38,29,22)" stroke="rgb(38,29,22)" stroke-width="1" opacity="0.9294117647058824" d="M 281.5 394 Q 284.5 394.5 284 398.5 L 283 398.5 L 281.5 394 Z " /><path fill="rgb(38,29,22)" stroke="rgb(38,29,22)" stroke-width="1" opacity="0.9294117647058824" d="M 444.5 394 L 443.5 396 L 444.5 394 Z " /><path fill="rgb(38,29,22)" stroke="rgb(38,29,22)" stroke-width="1" opacity="0.9294117647058824" d="M 342.5 396 L 343.5 398 L 342.5 396 Z " /><path fill="rgb(38,29,22)" stroke="rgb(38,29,22)" stroke-width="1" opacity="0.9294117647058824" d="M 401.5 398 L 403 401.5 L 402 401.5 L 401.5 398 Z " /><path fill="rgb(38,29,22)" stroke="rgb(38,29,22)" stroke-width="1" opacity="0.9294117647058824" d="M 285.5 399 L 288 404.5 L 287 404.5 Q 284 402.7 285.5 399 Z " /><path fill="rgb(38,29,22)" stroke="rgb(38,29,22)" stroke-width="1" opacity="0.9294117647058824" d="M 361.5 401 L 360.5 403 L 361.5 401 Z " /><path fill="rgb(38,29,22)" stroke="rgb(38,29,22)" stroke-width="1" opacity="0.9294117647058824" d="M 453.5 401 L 454.5 403 L 453.5 401 Z " /><path fill="rgb(38,29,22)" stroke="rgb(38,29,22)" stroke-width="1" opacity="0.9294117647058824" d="M 492.5 401 L 493 404.5 L 492 404.5 L 492.5 401 Z " /><path fill="rgb(38,29,22)" stroke="rgb(38,29,22)" stroke-width="1" opacity="0.9294117647058824" d="M 349.5 403 L 352 403.5 L 349.5 404 L 349.5 403 Z " /><path fill="rgb(38,29,22)" stroke="rgb(38,29,22)" stroke-width="1" opacity="0.9294117647058824" d="M 353.5 403 L 356 403.5 L 353.5 404 L 353.5 403 Z " /><path fill="rgb(38,29,22)" stroke="rgb(38,29,22)" stroke-width="1" opacity="0.9294117647058824" d="M 103.5 405 L 104 406.5 L 101 408.5 L 103.5 405 Z " /><path fill="rgb(38,29,22)" stroke="rgb(38,29,22)" stroke-width="1" opacity="0.9294117647058824" d="M 491.5 406 L 489.5 409 L 491.5 406 Z " /><path fill="rgb(38,29,22)" stroke="rgb(38,29,22)" stroke-width="1" opacity="0.9294117647058824" d="M 289.5 407 L 292 410.5 L 290 409.5 L 289.5 407 Z " /><path fill="rgb(38,29,22)" stroke="rgb(38,29,22)" stroke-width="1" opacity="0.9294117647058824" d="M 98.5 411 L 99 413 L 97 412.5 L 98.5 411 Z " /><path fill="rgb(38,29,22)" stroke="rgb(38,29,22)" stroke-width="1" opacity="0.9294117647058824" d="M 165.5 411 L 166 412.5 L 163.5 414 L 163.5 413 Q 166 413.7 165.5 411 Z " /><path fill="rgb(38,29,22)" stroke="rgb(38,29,22)" stroke-width="1" opacity="0.9294117647058824" d="M 441.5 411 L 443 413.5 L 441 414 L 441.5 411 Z " /><path fill="rgb(38,29,22)" stroke="rgb(38,29,22)" stroke-width="1" opacity="0.9294117647058824" d="M 409.5 412 L 410.5 414 L 409.5 412 Z " /><path fill="rgb(38,29,22)" stroke="rgb(38,29,22)" stroke-width="1" opacity="0.9294117647058824" d="M 96.5 414 L 97 416.5 L 95 417.5 L 96.5 414 Z " /><path fill="rgb(38,29,22)" stroke="rgb(38,29,22)" stroke-width="1" opacity="0.9294117647058824" d="M 411.5 415 L 413 417.5 L 411 416.5 L 411.5 415 Z " /><path fill="rgb(38,29,22)" stroke="rgb(38,29,22)" stroke-width="1" opacity="0.9294117647058824" d="M 482.5 417 L 481.5 419 L 482.5 417 Z " /><path fill="rgb(38,29,22)" stroke="rgb(38,29,22)" stroke-width="1" opacity="0.9294117647058824" d="M 295.5 418 L 298 421.5 L 296 420.5 L 295.5 418 Z " /><path fill="rgb(38,29,22)" stroke="rgb(38,29,22)" stroke-width="1" opacity="0.9294117647058824" d="M 158.5 420 L 156.5 423 L 158.5 420 Z " /><path fill="rgb(38,29,22)" stroke="rgb(38,29,22)" stroke-width="1" opacity="0.9294117647058824" d="M 478.5 421 L 476.5 424 L 478.5 421 Z " /><path fill="rgb(38,29,22)" stroke="rgb(38,29,22)" stroke-width="1" opacity="0.9294117647058824" d="M 442.5 423 L 445 423.5 L 442.5 424 L 442.5 423 Z " /><path fill="rgb(38,29,22)" stroke="rgb(38,29,22)" stroke-width="1" opacity="0.9294117647058824" d="M 91.5 424 L 92 425.5 L 89.5 427 L 89.5 426 Q 92 426.7 91.5 424 Z " /><path fill="rgb(38,29,22)" stroke="rgb(38,29,22)" stroke-width="1" opacity="0.9294117647058824" d="M 415.5 427 L 416.5 429 Q 413.7 429.7 415.5 427 Z " /><path fill="rgb(38,29,22)" stroke="rgb(38,29,22)" stroke-width="1" opacity="0.9294117647058824" d="M 152.5 428 L 151.5 430 L 152.5 428 Z " /><path fill="rgb(38,29,22)" stroke="rgb(38,29,22)" stroke-width="1" opacity="0.9294117647058824" d="M 455 428 L 457 428 Q 455.9 430.7 458.5 430 L 458.5 431 L 455 430 L 455 428 Z " /><path fill="rgb(38,29,22)" stroke="rgb(38,29,22)" stroke-width="1" opacity="0.9294117647058824" d="M 467.5 430 L 465.5 433 L 467.5 430 Z " /><path fill="rgb(38,29,22)" stroke="rgb(38,29,22)" stroke-width="1" opacity="0.9294117647058824" d="M 364.5 432 L 365.5 434 L 364.5 432 Z " /><path fill="rgb(38,29,22)" stroke="rgb(38,29,22)" stroke-width="1" opacity="0.9294117647058824" d="M 377 432 L 383 435.5 L 381.5 436 Q 379.2 431.7 377 433.5 L 377 432 Z " /><path fill="rgb(38,29,22)" stroke="rgb(38,29,22)" stroke-width="1" opacity="0.9294117647058824" d="M 148.5 433 L 147.5 435 L 145.5 436 L 146.5 434 L 148.5 433 Z " /><path fill="rgb(38,29,22)" stroke="rgb(38,29,22)" stroke-width="1" opacity="0.9294117647058824" d="M 84.5 435 L 83.5 437 L 84.5 435 Z " /><path fill="rgb(38,29,22)" stroke="rgb(38,29,22)" stroke-width="1" opacity="0.9294117647058824" d="M 398.5 435 Q 400.8 434.3 400 436.5 L 401 439 L 397 437.5 L 399 437.5 L 398.5 435 Z " /><path fill="rgb(38,29,22)" stroke="rgb(38,29,22)" stroke-width="1" opacity="0.9294117647058824" d="M 308.5 436 L 311.5 440 L 308.5 436 Z " /><path fill="rgb(38,29,22)" stroke="rgb(38,29,22)" stroke-width="1" opacity="0.9294117647058824" d="M 82.5 439 L 83 440.5 L 82.5 443 Q 80.3 443.8 81 441.5 L 82.5 439 Z " /><path fill="rgb(38,29,22)" stroke="rgb(38,29,22)" stroke-width="1" opacity="0.9294117647058824" d="M 330.5 440 L 333 440.5 L 330.5 441 L 330.5 440 Z " /><path fill="rgb(38,29,22)" stroke="rgb(38,29,22)" stroke-width="1" opacity="0.9294117647058824" d="M 314.5 442 L 317 442.5 L 314.5 443 L 314.5 442 Z " /><path fill="rgb(38,29,22)" stroke="rgb(38,29,22)" stroke-width="1" opacity="0.9294117647058824" d="M 318.5 442 L 321 442.5 L 318.5 443 L 318.5 442 Z " /><path fill="rgb(38,29,22)" stroke="rgb(38,29,22)" stroke-width="1" opacity="0.9294117647058824" d="M 424.5 443 L 426 445.5 L 425 445.5 L 424.5 443 Z " /><path fill="rgb(38,29,22)" stroke="rgb(38,29,22)" stroke-width="1" opacity="0.9294117647058824" d="M 67.5 444 L 68.5 446 L 67.5 444 Z " /><path fill="rgb(38,29,22)" stroke="rgb(38,29,22)" stroke-width="1" opacity="0.9294117647058824" d="M 515.5 444 L 514.5 446 L 515.5 444 Z " /><path fill="rgb(38,29,22)" stroke="rgb(38,29,22)" stroke-width="1" opacity="0.9294117647058824" d="M 146.5 445 L 148.5 448 L 146.5 445 Z " /><path fill="rgb(38,29,22)" stroke="rgb(38,29,22)" stroke-width="1" opacity="0.9294117647058824" d="M 72.5 451 L 73.5 453 L 72.5 451 Z " /><path fill="rgb(38,29,22)" stroke="rgb(38,29,22)" stroke-width="1" opacity="0.9294117647058824" d="M 163.5 451 L 164.5 453 L 163.5 451 Z " /><path fill="rgb(38,29,22)" stroke="rgb(38,29,22)" stroke-width="1" opacity="0.9294117647058824" d="M 394.5 451 L 398 451.5 L 394.5 452 L 394.5 451 Z " /><path fill="rgb(38,29,22)" stroke="rgb(38,29,22)" stroke-width="1" opacity="0.9294117647058824" d="M 399.5 451 L 406 451.5 L 399.5 452 L 399.5 451 Z " /><path fill="rgb(38,29,22)" stroke="rgb(38,29,22)" stroke-width="1" opacity="0.9294117647058824" d="M 510.5 451 L 509.5 453 L 510.5 451 Z " /><path fill="rgb(38,29,22)" stroke="rgb(38,29,22)" stroke-width="1" opacity="0.9294117647058824" d="M 166 453 L 168 453.5 L 166 454.5 L 166 453 Z " /><path fill="rgb(38,29,22)" stroke="rgb(38,29,22)" stroke-width="1" opacity="0.9294117647058824" d="M 74.5 454 L 76.5 457 L 74.5 454 Z " /><path fill="rgb(38,29,22)" stroke="rgb(38,29,22)" stroke-width="1" opacity="0.9294117647058824" d="M 84.5 454 L 86 456.5 L 85 456.5 L 84.5 454 Z " /><path fill="rgb(38,29,22)" stroke="rgb(38,29,22)" stroke-width="1" opacity="0.9294117647058824" d="M 508.5 454 L 506.5 457 L 508.5 454 Z " /><path fill="rgb(38,29,22)" stroke="rgb(38,29,22)" stroke-width="1" opacity="0.9294117647058824" d="M 176.5 457 L 180 457.5 L 176.5 458 L 176.5 457 Z " /><path fill="rgb(38,29,22)" stroke="rgb(38,29,22)" stroke-width="1" opacity="0.9294117647058824" d="M 85.5 458 L 87 460.5 L 86 460.5 L 85.5 458 Z " /><path fill="rgb(38,29,22)" stroke="rgb(38,29,22)" stroke-width="1" opacity="0.9294117647058824" d="M 78.5 459 L 79.5 461 L 78.5 459 Z " /><path fill="rgb(38,29,22)" stroke="rgb(38,29,22)" stroke-width="1" opacity="0.9294117647058824" d="M 504.5 459 L 503.5 461 L 504.5 459 Z " /><path fill="rgb(38,29,22)" stroke="rgb(38,29,22)" stroke-width="1" opacity="0.9294117647058824" d="M 88.5 461 L 89.5 463 L 88.5 461 Z " /><path fill="rgb(38,29,22)" stroke="rgb(38,29,22)" stroke-width="1" opacity="0.9294117647058824" d="M 194.5 462 L 195 465.5 L 194 465.5 L 194.5 462 Z " /><path fill="rgb(38,29,22)" stroke="rgb(38,29,22)" stroke-width="1" opacity="0.9294117647058824" d="M 82.5 464 L 84.5 467 L 82.5 464 Z " /><path fill="rgb(38,29,22)" stroke="rgb(38,29,22)" stroke-width="1" opacity="0.9294117647058824" d="M 91.5 464 L 92.5 466 L 91.5 464 Z " /><path fill="rgb(38,29,22)" stroke="rgb(38,29,22)" stroke-width="1" opacity="0.9294117647058824" d="M 500.5 464 L 498.5 467 L 500.5 464 Z " /><path fill="rgb(38,29,22)" stroke="rgb(38,29,22)" stroke-width="1" opacity="0.9294117647058824" d="M 188.5 465 L 190.5 465 L 193 465.5 L 189.5 467 L 188.5 465 Z " /><path fill="rgb(38,29,22)" stroke="rgb(38,29,22)" stroke-width="1" opacity="0.9294117647058824" d="M 95.5 466 L 99 468.5 L 97.5 469 L 95.5 466 Z " /><path fill="rgb(38,29,22)" stroke="rgb(38,29,22)" stroke-width="1" opacity="0.9294117647058824" d="M 172.5 467 L 179 467.5 L 172.5 468 L 172.5 467 Z " /><path fill="rgb(38,29,22)" stroke="rgb(38,29,22)" stroke-width="1" opacity="0.9294117647058824" d="M 150.5 468 L 166 468.5 L 150.5 469 L 150.5 468 Z " /><path fill="rgb(38,29,22)" stroke="rgb(38,29,22)" stroke-width="1" opacity="0.9294117647058824" d="M 144.5 469 L 147 469.5 L 144.5 470 L 144.5 469 Z " /><path fill="rgb(38,29,22)" stroke="rgb(38,29,22)" stroke-width="1" opacity="0.9294117647058824" d="M 122.5 470 L 121.5 472 L 120 471.5 L 122.5 470 Z " /><path fill="rgb(38,29,22)" stroke="rgb(38,29,22)" stroke-width="1" opacity="0.9294117647058824" d="M 130.5 470 L 133 470.5 L 130.5 471 L 130.5 470 Z " /><path fill="rgb(38,29,22)" stroke="rgb(38,29,22)" stroke-width="1" opacity="0.9294117647058824" d="M 134.5 470 L 138 470.5 L 134.5 471 L 134.5 470 Z " /><path fill="rgb(38,29,22)" stroke="rgb(38,29,22)" stroke-width="1" opacity="0.9294117647058824" d="M 88.5 471 L 90.5 474 L 88.5 471 Z " /><path fill="rgb(38,29,22)" stroke="rgb(38,29,22)" stroke-width="1" opacity="0.9294117647058824" d="M 494.5 471 L 492.5 474 L 494.5 471 Z " /><path fill="rgb(38,29,22)" stroke="rgb(38,29,22)" stroke-width="1" opacity="0.9294117647058824" d="M 110.5 493 L 113.5 497 L 110.5 493 Z " /><path fill="rgb(38,29,22)" stroke="rgb(38,29,22)" stroke-width="1" opacity="0.9294117647058824" d="M 472.5 493 L 469.5 497 L 472.5 493 Z " /><path fill="rgb(38,29,22)" stroke="rgb(38,29,22)" stroke-width="1" opacity="0.9294117647058824" d="M 118.5 500 L 119.5 502 L 118.5 500 Z " /><path fill="rgb(38,29,22)" stroke="rgb(38,29,22)" stroke-width="1" opacity="0.9294117647058824" d="M 464.5 500 L 463.5 502 L 464.5 500 Z " /><path fill="rgb(38,29,22)" stroke="rgb(38,29,22)" stroke-width="1" opacity="0.9294117647058824" d="M 123.5 504 L 124.5 506 L 123.5 504 Z " /><path fill="rgb(38,29,22)" stroke="rgb(38,29,22)" stroke-width="1" opacity="0.9294117647058824" d="M 459.5 504 L 458.5 506 L 459.5 504 Z " /><path fill="rgb(38,29,22)" stroke="rgb(38,29,22)" stroke-width="1" opacity="0.9294117647058824" d="M 128.5 508 L 129.5 510 L 128.5 508 Z " /><path fill="rgb(38,29,22)" stroke="rgb(38,29,22)" stroke-width="1" opacity="0.9294117647058824" d="M 454.5 508 L 453.5 510 L 454.5 508 Z " /><path fill="rgb(38,29,22)" stroke="rgb(38,29,22)" stroke-width="1" opacity="0.9294117647058824" d="M 135.5 513 L 136.5 515 L 135.5 513 Z " /><path fill="rgb(38,29,22)" stroke="rgb(38,29,22)" stroke-width="1" opacity="0.9294117647058824" d="M 447.5 513 L 446.5 515 L 447.5 513 Z " /><path fill="rgb(38,29,22)" stroke="rgb(38,29,22)" stroke-width="1" opacity="0.9294117647058824" d="M 252.5 560 L 255 560.5 L 252.5 561 L 252.5 560 Z " /><path fill="rgb(38,29,22)" stroke="rgb(38,29,22)" stroke-width="1" opacity="0.9294117647058824" d="M 328.5 560 L 331 560.5 L 328.5 561 L 328.5 560 Z " /><path fill="rgb(38,29,22)" stroke="rgb(38,29,22)" stroke-width="1" opacity="0.9294117647058824" d="M 260.5 561 L 263 561.5 L 260.5 562 L 260.5 561 Z " /><path fill="rgb(38,29,22)" stroke="rgb(38,29,22)" stroke-width="1" opacity="0.9294117647058824" d="M 320.5 561 L 323 561.5 L 320.5 562 L 320.5 561 Z " /><path fill="rgb(38,29,22)" stroke="rgb(38,29,22)" stroke-width="1" opacity="0.9294117647058824" d="M 270.5 562 L 275 562.5 L 270.5 563 L 270.5 562 Z " /><path fill="rgb(38,29,22)" stroke="rgb(38,29,22)" stroke-width="1" opacity="0.9294117647058824" d="M 308.5 562 L 313 562.5 L 308.5 563 L 308.5 562 Z " /><path fill="rgb(0,0,0)" stroke="rgb(0,0,0)" stroke-width="1" opacity="1" d="M 275.5 0 L 307.5 0 L 308.5 1 L 320.5 1 L 321.5 2 L 336.5 3 L 368.5 10 L 393.5 18 Q 457 42.5 500 87.5 Q 539.8 127.7 563 184.5 L 573 214.5 L 580 247.5 L 581 261.5 L 582 262.5 L 582 274.5 L 583 275.5 L 583 308.5 L 582 309.5 L 581 329.5 L 576 357.5 Q 568.9 387.9 557 413.5 Q 533.2 464.2 495.5 501 Q 453.7 542.7 393.5 566 L 368.5 574 L 336.5 581 L 329.5 581 L 320.5 583 L 308.5 583 L 307.5 584 L 275.5 584 L 274.5 583 L 262.5 583 L 261.5 582 L 246.5 581 Q 240 578 230.5 578 Q 199 571 172.5 559 Q 120.4 535.1 83 496.5 Q 43.2 456.3 20 399.5 L 10 369.5 L 3 336.5 L 2 322.5 L 1 321.5 L 1 309.5 L 0 308.5 L 0 275.5 L 1 274.5 L 2 254.5 L 7 226.5 Q 14.1 196.1 26 170.5 Q 49.8 119.8 87.5 83 Q 123.5 47.5 172.5 25 Q 199 13 230.5 6 Q 240 6 246.5 3 L 253.5 3 L 262.5 1 L 274.5 1 L 275.5 0 Z M 271 21 L 270 22 L 261 22 L 260 23 L 253 23 L 236 26 L 216 31 L 188 41 Q 145 59 114 87 Q 77 119 53 163 Q 40 185 32 213 L 24 247 L 23 260 L 22 261 L 22 271 L 21 272 L 21 313 L 22 314 L 23 332 L 30 365 L 37 387 Q 56 436 88 472 Q 119 506 161 530 Q 186 544 216 553 L 241 559 L 260 561 L 261 562 L 270 562 L 271 563 L 313 563 L 314 562 L 323 562 L 324 561 L 331 561 L 348 558 L 368 553 Q 428 534 470 497 Q 506 465 530 422 Q 543 399 551 372 L 559 338 L 560 325 L 561 324 L 561 314 L 562 313 L 562 272 L 561 271 L 560 253 L 553 220 L 546 198 Q 527 148 495 113 Q 455 67 396 41 L 368 31 L 331 23 L 314 22 L 313 21 L 271 21 Z " /><path fill="rgb(0,0,0)" stroke="rgb(0,0,0)" stroke-width="1" opacity="1" d="M 398.5 99 L 408.5 99 L 414.5 101 L 430.5 102 L 445.5 108 L 453 113.5 L 453 119.5 L 456 122.5 L 458 129.5 L 464 136.5 Q 463 145.5 466 150.5 L 464 157 L 461 158.5 L 461 162 Q 458 160.8 459 164.5 L 457 172 L 455 172.5 L 457 178.5 L 455 182.5 L 457 192.5 L 453 198.5 L 452 207.5 L 449.5 210 L 446 212.5 L 443.5 217 Q 440.3 220.8 431.5 219 Q 430.3 215.8 424.5 217 L 422.5 217 L 417.5 216 Q 413.4 219.9 415 229.5 L 417 232.5 Q 415.5 238.5 418.5 240 Q 420.8 239.3 420 241.5 L 422 245.5 L 420 249.5 Q 422.6 250.9 422 255.5 L 420 261.5 L 423 267.5 L 423 272.5 L 422 275.5 L 426 282 L 439 289.5 Q 438.2 292.1 441.5 291 L 446 294 L 447 298 L 450 299.5 Q 449.3 301.8 451.5 301 L 455 303.5 L 455 306.5 L 458 311 Q 466.2 312.9 471 319.5 Q 470.3 321.8 472.5 321 L 476 323.5 L 478 326.5 L 483.5 333 Q 490.9 335.1 495 340.5 L 498 349.5 L 498 358.5 L 501 363.5 L 501 370.5 L 497 377.5 L 497 382.5 L 494 389.5 L 494 396.5 Q 491.4 399.4 492 405.5 L 480.5 419 Q 478.3 418.3 479 420.5 L 472.5 428 L 470.5 428 L 465.5 432 L 461.5 432 L 457 430 Q 458.1 427.3 455.5 428 L 453.5 428 Q 447.8 427.8 445 424.5 L 445 423 Q 441.3 424.5 442 421.5 L 441 419.5 L 442 417.5 L 441.5 416 Q 444.1 416.8 443 413.5 L 439 407.5 L 438 402.5 L 440 402 Q 441.1 399.3 438.5 400 L 438.5 399 L 441.5 397 L 445 394.5 L 445 392 L 450.5 392 Q 453.5 392.5 453 396.5 L 452 398.5 L 454.5 403 L 461 403 L 461 401 Q 463.7 402.1 463 399.5 L 465 394.5 L 463 390.5 L 463 388.5 Q 464.4 381.1 461 378.5 Q 463.7 376.8 459.5 375 L 457.5 374 L 442.5 374 Q 436.8 372.8 434.5 368 L 426.5 366 L 424.5 367 L 419 364 L 416.5 360 Q 411.4 360.6 410 357.5 L 408.5 355 L 405 354 L 400 341.5 L 396.5 338 L 394.5 337 L 391 338.5 L 389 347.5 L 389 356.5 L 391 367.5 L 391 369.5 L 392 375.5 L 396 383.5 L 396 386.5 L 401 399.5 L 404 406.5 L 409 411.5 L 413 418.5 L 415 429 L 417 429 L 417 432 Q 420 430.8 419 434.5 L 422 437.5 L 426 446.5 L 423.5 450 L 409.5 451 L 407.5 450 L 406.5 451 L 385.5 452 Q 375.2 447.8 369 439.5 L 368 434 L 364.5 432 L 352.5 436 L 350.5 436 L 347.5 436 L 338.5 440 L 330.5 440 L 323.5 442 L 313.5 442 L 308.5 436 L 302 434 Q 303 431 300 432 L 300 427.5 L 299 424.5 L 291 408.5 L 288 405.5 L 286 399 Q 283 400.3 284 396.5 L 279 391.5 L 276 380 Q 273 381.3 274 377.5 Q 267.5 373.8 267 365 L 265 364.5 L 265.5 363 L 260 358.5 L 257 350.5 L 258 348.5 L 256 344.5 L 256 335.5 L 254.5 334 Q 249.5 333 248.5 336 L 237.5 336 L 235 332 L 231 331 Q 232.1 328.3 229.5 329 L 226.5 325 Q 221.3 325.2 219.5 322 L 217.5 322 L 212.5 322 Q 211.8 319.3 207.5 320 L 205 323.5 L 203 331.5 L 200 334.5 L 200 340.5 L 201 343.5 L 200 344.5 L 200 352.5 L 182 375.5 L 181 381.5 L 179 383.5 L 179 389.5 L 172 398.5 Q 171.3 404.8 167 407.5 L 167 411 L 165 411 L 165 413 Q 162.3 411.9 163 414.5 L 147.5 434 L 145 435.5 L 142 441.5 L 143 444 L 148.5 448 Q 150 445.5 151.5 449 L 160 450 L 160.5 452 L 162.5 451 L 166 453 L 166.5 455 Q 169 450.5 171.5 456 L 194 462 L 193.5 466 L 190.5 465 L 185.5 466 L 183.5 467 L 181.5 467 L 150.5 468 L 149.5 469 L 147.5 469 L 134.5 470 L 133.5 471 L 130.5 470 L 128.5 471 L 126.5 471 L 122.5 470 L 118.5 472 L 114.5 471 L 110.5 471 L 102.5 471 L 90 464 L 88.5 461 Q 86.3 461.8 87 459.5 Q 83.5 458 86 456.5 L 85 447.5 L 83.5 446 Q 80.9 446.8 82 443.5 L 83 440.5 L 83 437.5 L 89 427 L 92 425.5 L 92 423.5 L 97 416.5 L 97 413 Q 99.7 414.1 99 411.5 L 104 405 Q 107 406.3 106 402.5 L 108 399 Q 111.3 400.3 110 395.5 L 116 386.5 L 121.5 374 L 125 373 L 127 366 Q 131.1 367.7 130 363.5 L 135 360 Q 133.5 356.3 136.5 357 L 141 353.5 L 141 342.5 L 137 338.5 L 134 327.5 L 132 325.5 L 132 314.5 L 126 307.5 L 124 300.5 L 124 293.5 L 126 291.5 L 127 280.5 L 129 278.5 L 129 271.5 L 131 265.5 L 132 252.5 L 134 249.5 L 134 243.5 L 136 241.5 L 136 237.5 L 139 230.5 L 144 225.5 Q 146.2 216.7 151.5 211 Q 153.8 211.8 153 209.5 L 165 190.5 L 180.5 175 L 196.5 165 L 203.5 164 L 217.5 151 L 231.5 143 Q 236.8 135.8 245.5 132 L 263.5 127 L 285.5 126 Q 294.4 123.4 299.5 117 L 311.5 113 L 320.5 106 L 328.5 105 L 336.5 102 L 353.5 100 Q 355.3 102.8 361.5 101 L 366.5 100 L 367.5 101 L 379.5 101 Q 380.9 103.6 385.5 103 L 390.5 100 Q 396.8 101.7 398.5 99 Z M 321 266 Q 322 269 320 268 L 318 268 L 314 270 L 309 269 L 300 273 L 297 273 L 293 276 L 285 277 L 283 279 L 286 285 L 286 287 L 288 287 L 288 289 Q 291 288 290 291 L 293 292 L 298 301 L 299 311 L 301 316 L 305 320 L 306 324 Q 305 326 308 325 L 317 339 L 317 342 L 320 345 L 319 346 L 333 370 L 334 374 L 337 377 L 340 385 L 340 393 L 345 400 L 345 402 L 352 404 L 354 404 L 361 403 L 362 402 Q 362 395 359 393 Q 360 388 356 390 L 346 373 Q 347 368 344 369 Q 342 360 336 355 L 336 352 L 336 350 L 337 347 L 336 345 L 337 343 L 336 337 L 336 335 L 333 331 L 334 321 L 335 318 L 335 305 L 332 290 L 333 288 L 333 286 L 331 280 L 326 277 Q 323 276 324 273 L 324 271 L 325 269 L 321 266 Z M 382 430 L 380 432 Q 376 431 377 434 Q 379 432 382 436 L 384 435 Q 387 436 386 433 L 382 430 Z M 398 435 L 397 438 L 401 439 L 400 437 Q 401 434 398 435 Z " /></svg>