<?xml version="1.0" encoding="UTF-8"?>
<svg version="1.1" xmlns="http://www.w3.org/2000/svg" width="618" height="619">
<path d="M0 0 C1.5846405 0.00323273 1.5846405 0.00323273 3.20129395 0.00653076 C19.12609246 0.05860013 34.72858268 0.45749919 50.4375 3.3125 C51.54287109 3.51117676 52.64824219 3.70985352 53.78710938 3.91455078 C93.96672158 11.37695789 133.22188296 25.74268198 167.4375 48.3125 C168.12634277 48.7647998 168.81518555 49.21709961 169.52490234 49.68310547 C182.12440094 58.01279042 194.10850595 67.04862845 205.2265625 77.28515625 C207.17732911 79.0739334 209.16730395 80.79093119 211.1875 82.5 C220.22088811 90.39734335 228.75147015 99.00371276 236.15551758 108.44775391 C238.4282555 111.30089467 240.77959375 114.07014316 243.1484375 116.84375 C248.31875069 122.99246711 252.89174377 129.48044242 257.3125 136.1875 C257.69735565 136.76799103 258.0822113 137.34848206 258.47872925 137.94656372 C292.27870134 189.05517138 309.98071167 248.14757858 309.75 309.375 C309.74784485 310.40808289 309.7456897 311.44116577 309.74346924 312.5055542 C309.69069516 328.2990359 309.20093137 343.72564573 306.4375 359.3125 C306.24414062 360.43575684 306.05078125 361.55901367 305.8515625 362.71630859 C296.38422611 416.22575229 273.75490463 466.85034423 238.4375 508.3125 C237.56156706 509.37292798 236.68661695 510.43416834 235.8125 511.49609375 C225.35066462 524.08941264 213.93914091 536.18143031 201.0234375 546.28515625 C198.19118458 548.50560831 195.47951687 550.84216446 192.75 553.1875 C181.78963805 562.33059987 169.71250602 570.06370946 157.4375 577.3125 C156.86692871 577.65458496 156.29635742 577.99666992 155.70849609 578.34912109 C125.28711131 596.50903691 91.47965199 608.47761317 56.75 615.0625 C55.18499756 615.36075684 55.18499756 615.36075684 53.58837891 615.66503906 C36.03821239 618.82444838 18.68056062 619.69053119 0.875 619.625 C-0.7096405 619.62176727 -0.7096405 619.62176727 -2.32629395 619.61846924 C-18.25109246 619.56639987 -33.85358268 619.16750081 -49.5625 616.3125 C-50.66787109 616.11382324 -51.77324219 615.91514648 -52.91210938 615.71044922 C-93.09172158 608.24804211 -132.34688296 593.88231802 -166.5625 571.3125 C-167.59576416 570.63405029 -167.59576416 570.63405029 -168.64990234 569.94189453 C-181.24940094 561.61220958 -193.23350595 552.57637155 -204.3515625 542.33984375 C-206.30232911 540.5510666 -208.29230395 538.83406881 -210.3125 537.125 C-219.34588811 529.22765665 -227.87647015 520.62128724 -235.28051758 511.17724609 C-237.5532555 508.32410533 -239.90459375 505.55485684 -242.2734375 502.78125 C-247.44375069 496.63253289 -252.01674377 490.14455758 -256.4375 483.4375 C-256.82235565 482.85700897 -257.2072113 482.27651794 -257.60372925 481.67843628 C-291.40370134 430.56982862 -309.10571167 371.47742142 -308.875 310.25 C-308.87284485 309.21691711 -308.8706897 308.18383423 -308.86846924 307.1194458 C-308.81569516 291.3259641 -308.32593137 275.89935427 -305.5625 260.3125 C-305.36914062 259.18924316 -305.17578125 258.06598633 -304.9765625 256.90869141 C-295.50922611 203.39924771 -272.87990463 152.77465577 -237.5625 111.3125 C-236.68656706 110.25207202 -235.81161695 109.19083166 -234.9375 108.12890625 C-224.47566462 95.53558736 -213.06414091 83.44356969 -200.1484375 73.33984375 C-197.31618458 71.11939169 -194.60451687 68.78283554 -191.875 66.4375 C-180.91463805 57.29440013 -168.83750602 49.56129054 -156.5625 42.3125 C-155.99192871 41.97041504 -155.42135742 41.62833008 -154.83349609 41.27587891 C-124.41211131 23.11596309 -90.60465199 11.14738683 -55.875 4.5625 C-54.83166504 4.36366211 -53.78833008 4.16482422 -52.71337891 3.95996094 C-35.16321239 0.80055162 -17.80556062 -0.06553119 0 0 Z " fill="#FDBF00" transform="translate(308.5625,-0.31250000000000006)"/>
<path d="M0 0 C1.5846405 0.00323273 1.5846405 0.00323273 3.20129395 0.00653076 C19.12609246 0.05860013 34.72858268 0.45749919 50.4375 3.3125 C51.54287109 3.51117676 52.64824219 3.70985352 53.78710938 3.91455078 C93.96672158 11.37695789 133.22188296 25.74268198 167.4375 48.3125 C168.12634277 48.7647998 168.81518555 49.21709961 169.52490234 49.68310547 C182.12440094 58.01279042 194.10850595 67.04862845 205.2265625 77.28515625 C207.17732911 79.0739334 209.16730395 80.79093119 211.1875 82.5 C220.22088811 90.39734335 228.75147015 99.00371276 236.15551758 108.44775391 C238.4282555 111.30089467 240.77959375 114.07014316 243.1484375 116.84375 C248.31875069 122.99246711 252.89174377 129.48044242 257.3125 136.1875 C257.69735565 136.76799103 258.0822113 137.34848206 258.47872925 137.94656372 C292.27870134 189.05517138 309.98071167 248.14757858 309.75 309.375 C309.74784485 310.40808289 309.7456897 311.44116577 309.74346924 312.5055542 C309.69069516 328.2990359 309.20093137 343.72564573 306.4375 359.3125 C306.24414062 360.43575684 306.05078125 361.55901367 305.8515625 362.71630859 C296.38422611 416.22575229 273.75490463 466.85034423 238.4375 508.3125 C237.56156706 509.37292798 236.68661695 510.43416834 235.8125 511.49609375 C225.35066462 524.08941264 213.93914091 536.18143031 201.0234375 546.28515625 C198.19118458 548.50560831 195.47951687 550.84216446 192.75 553.1875 C181.78963805 562.33059987 169.71250602 570.06370946 157.4375 577.3125 C156.86692871 577.65458496 156.29635742 577.99666992 155.70849609 578.34912109 C125.28711131 596.50903691 91.47965199 608.47761317 56.75 615.0625 C55.18499756 615.36075684 55.18499756 615.36075684 53.58837891 615.66503906 C36.03821239 618.82444838 18.68056062 619.69053119 0.875 619.625 C-0.7096405 619.62176727 -0.7096405 619.62176727 -2.32629395 619.61846924 C-18.25109246 619.56639987 -33.85358268 619.16750081 -49.5625 616.3125 C-50.66787109 616.11382324 -51.77324219 615.91514648 -52.91210938 615.71044922 C-93.09172158 608.24804211 -132.34688296 593.88231802 -166.5625 571.3125 C-167.59576416 570.63405029 -167.59576416 570.63405029 -168.64990234 569.94189453 C-181.24940094 561.61220958 -193.23350595 552.57637155 -204.3515625 542.33984375 C-206.30232911 540.5510666 -208.29230395 538.83406881 -210.3125 537.125 C-219.34588811 529.22765665 -227.87647015 520.62128724 -235.28051758 511.17724609 C-237.5532555 508.32410533 -239.90459375 505.55485684 -242.2734375 502.78125 C-247.44375069 496.63253289 -252.01674377 490.14455758 -256.4375 483.4375 C-256.82235565 482.85700897 -257.2072113 482.27651794 -257.60372925 481.67843628 C-291.40370134 430.56982862 -309.10571167 371.47742142 -308.875 310.25 C-308.87284485 309.21691711 -308.8706897 308.18383423 -308.86846924 307.1194458 C-308.81569516 291.3259641 -308.32593137 275.89935427 -305.5625 260.3125 C-305.36914062 259.18924316 -305.17578125 258.06598633 -304.9765625 256.90869141 C-295.50922611 203.39924771 -272.87990463 152.77465577 -237.5625 111.3125 C-236.68656706 110.25207202 -235.81161695 109.19083166 -234.9375 108.12890625 C-224.47566462 95.53558736 -213.06414091 83.44356969 -200.1484375 73.33984375 C-197.31618458 71.11939169 -194.60451687 68.78283554 -191.875 66.4375 C-180.91463805 57.29440013 -168.83750602 49.56129054 -156.5625 42.3125 C-155.99192871 41.97041504 -155.42135742 41.62833008 -154.83349609 41.27587891 C-124.41211131 23.11596309 -90.60465199 11.14738683 -55.875 4.5625 C-54.83166504 4.36366211 -53.78833008 4.16482422 -52.71337891 3.95996094 C-35.16321239 0.80055162 -17.80556062 -0.06553119 0 0 Z M-43.3125 24.125 C-44.86408813 24.39219849 -44.86408813 24.39219849 -46.44702148 24.66479492 C-92.88645495 32.80973382 -137.46104191 50.79264422 -174.5625 80.3125 C-175.49320312 81.05113281 -176.42390625 81.78976563 -177.3828125 82.55078125 C-183.6393272 87.59607653 -189.63329263 92.88922799 -195.5625 98.3125 C-196.57747377 99.22338242 -197.59312626 100.133509 -198.609375 101.04296875 C-204.31922435 106.17516797 -209.63623894 111.41529537 -214.5625 117.3125 C-215.43132812 118.29347656 -216.30015625 119.27445312 -217.1953125 120.28515625 C-230.5459837 135.39144071 -241.62069138 151.79713756 -251.5625 169.3125 C-252.00190918 170.08142578 -252.44131836 170.85035156 -252.89404297 171.64257812 C-260.44877768 184.9956647 -266.18033544 198.96346062 -271.5625 213.3125 C-271.83433105 214.02857422 -272.10616211 214.74464844 -272.38623047 215.48242188 C-278.47592708 231.72724752 -282.00388931 249.058816 -284.875 266.125 C-285.03427979 267.07173584 -285.19355957 268.01847168 -285.35766602 268.99389648 C-287.45745261 282.14677459 -287.80335545 295.2100202 -287.8125 308.5 C-287.81317474 309.38544495 -287.81384949 310.27088989 -287.81454468 311.1831665 C-287.79697638 325.7523762 -287.02866456 339.92929865 -284.5625 354.3125 C-284.38025879 355.40224121 -284.19801758 356.49198242 -284.01025391 357.61474609 C-281.90871957 369.9412896 -279.58830059 382.10886558 -275.40673828 393.91845703 C-274.36084499 396.88434182 -273.35307913 399.86264649 -272.33984375 402.83984375 C-259.22953854 440.90577531 -239.3708335 474.26094469 -212.5625 504.3125 C-212.04623047 504.89193359 -211.52996094 505.47136719 -210.99804688 506.06835938 C-205.77900796 511.89531609 -200.54940097 517.62606531 -194.53515625 522.65234375 C-192.24934692 524.57604467 -190.07035737 526.59878734 -187.875 528.625 C-147.97027147 564.47264687 -97.02894563 586.34901004 -44.5625 595.3125 C-43.33789062 595.52777344 -42.11328125 595.74304688 -40.8515625 595.96484375 C-27.67302311 598.15063055 -14.47560032 598.49912762 -1.14990234 598.49780273 C1.30258516 598.49999115 3.75462253 598.51823715 6.20703125 598.53710938 C16.46553194 598.57439217 26.28970032 597.83276222 36.4375 596.3125 C37.61715332 596.15144775 38.79680664 595.99039551 40.01220703 595.82446289 C67.38298926 592.02986848 93.16146023 584.60858294 118.4375 573.3125 C119.24687012 572.95720215 120.05624023 572.6019043 120.89013672 572.23583984 C145.2443862 561.48220697 167.48106269 546.88649746 187.4375 529.3125 C188.50484375 528.39404297 188.50484375 528.39404297 189.59375 527.45703125 C191.55948742 525.76117991 193.50169121 524.04244852 195.4375 522.3125 C196.3965625 521.45785156 197.355625 520.60320312 198.34375 519.72265625 C203.42825286 515.15294939 208.35379681 510.56078842 212.75 505.30859375 C214.63925969 503.07384444 216.6301439 500.95340806 218.625 498.8125 C270.87512932 440.78642101 292.16255662 362.04108137 288.23535156 285.36572266 C287.68251046 277.95035025 286.69548263 270.63914836 285.4375 263.3125 C285.25477539 262.23274902 285.07205078 261.15299805 284.88378906 260.04052734 C275.29069332 205.64027094 250.0813383 156.389441 213.4375 115.3125 C212.92123047 114.73306641 212.40496094 114.15363281 211.87304688 113.55664062 C206.65400796 107.72968391 201.42440097 101.99893469 195.41015625 96.97265625 C193.12434692 95.04895533 190.94535737 93.02621266 188.75 91 C149.84207855 56.04781563 100.10027203 34.19707546 49 25.0625 C48.26952454 24.93130768 47.53904907 24.80011536 46.78643799 24.66494751 C32.48244495 22.1188649 18.57698469 21.14517614 4.06591797 21.18212891 C1.57383093 21.18747569 -0.91807475 21.18215988 -3.41015625 21.17578125 C-16.86152213 21.16835352 -30.03655745 21.80754557 -43.3125 24.125 Z " fill="#010100" transform="translate(308.5625,-0.31250000000000006)"/>
<path d="M0 0 C1.15185791 -0.00999023 2.30371582 -0.01998047 3.49047852 -0.03027344 C4.56998779 -0.01899414 5.64949707 -0.00771484 6.76171875 0.00390625 C7.71393311 0.01365479 8.66614746 0.02340332 9.6472168 0.03344727 C12.81165744 0.51317148 14.7172878 1.5944494 17.3125 3.4375 C19.10696087 5.8844921 19.3584086 6.9669369 19.0625 10 C18.3125 12.4375 18.3125 12.4375 16.3125 15.4375 C15.6525 15.4375 14.9925 15.4375 14.3125 15.4375 C14.3125 16.0975 14.3125 16.7575 14.3125 17.4375 C13.6525 17.4375 12.9925 17.4375 12.3125 17.4375 C11.94125 18.5203125 11.94125 18.5203125 11.5625 19.625 C10.3125 22.4375 10.3125 22.4375 8.4375 24.5 C2.34103807 32.92746209 -0.61261287 46.57600248 -2.20703125 56.75390625 C-4.50154142 62.46293814 -8.81568389 65.90802899 -13.25 70.0625 C-20.8133658 77.38940625 -27.36626024 84.29161916 -32.6875 93.4375 C-33.326875 94.51257813 -33.96625 95.58765625 -34.625 96.6953125 C-39.83847129 105.88405565 -43.35849658 114.93576707 -44.6875 125.4375 C-45.5846875 125.6334375 -46.481875 125.829375 -47.40625 126.03125 C-54.75076405 127.79150543 -61.42944482 129.97359475 -68.1875 133.375 C-68.83267578 133.69855469 -69.47785156 134.02210938 -70.14257812 134.35546875 C-79.29203359 138.93803517 -79.29203359 138.93803517 -85.0625 146.9375 C-85.35898437 147.6696875 -85.65546875 148.401875 -85.9609375 149.15625 C-88.13806231 155.99195372 -87.94381004 162.82759693 -88 169.9375 C-88.04350586 171.77248047 -88.04350586 171.77248047 -88.08789062 173.64453125 C-88.09626953 174.82402344 -88.10464844 176.00351563 -88.11328125 177.21875 C-88.12786377 178.29189453 -88.14244629 179.36503906 -88.1574707 180.47070312 C-87.57916505 184.12138897 -86.02289564 185.64299962 -83.6875 188.4375 C-83.6875 189.7575 -83.6875 191.0775 -83.6875 192.4375 C-88.4375 191.6875 -88.4375 191.6875 -90.6875 189.4375 C-90.3575 193.7275 -90.0275 198.0175 -89.6875 202.4375 C-91.70875 202.416875 -93.73 202.39625 -95.8125 202.375 C-102.33152929 202.25044898 -102.33152929 202.25044898 -108.6875 203.4375 C-110.14041273 205.90005685 -110.14041273 205.90005685 -110.6875 208.4375 C-112.51474609 208.40269531 -112.51474609 208.40269531 -114.37890625 208.3671875 C-116.00259799 208.3484165 -117.62629642 208.33021773 -119.25 208.3125 C-120.44979492 208.28736328 -120.44979492 208.28736328 -121.67382812 208.26171875 C-126.76924591 208.2201235 -130.86107734 208.79420351 -135.6875 210.4375 C-136.6775 210.7675 -137.6675 211.0975 -138.6875 211.4375 C-140.11773178 206.76540951 -141.09130045 202.30646303 -141.6875 197.4375 C-142.3475 197.4375 -143.0075 197.4375 -143.6875 197.4375 C-143.9040625 198.860625 -143.9040625 198.860625 -144.125 200.3125 C-144.6875 203.4375 -144.6875 203.4375 -145.6875 205.4375 C-147.0075 205.1075 -148.3275 204.7775 -149.6875 204.4375 C-149.3575 201.1375 -149.0275 197.8375 -148.6875 194.4375 C-149.491875 194.355 -150.29625 194.2725 -151.125 194.1875 C-154.08666132 193.56399235 -155.86781892 192.93084859 -158.5 191.625 C-169.9080554 186.35236935 -183.30322953 184.73771967 -195.6875 183.4375 C-196.80777588 183.29852295 -196.80777588 183.29852295 -197.95068359 183.15673828 C-203.74266287 182.51171489 -209.42560253 182.40478562 -215.2421875 182.515625 C-215.99785004 182.52816818 -216.75351257 182.54071136 -217.53207397 182.55363464 C-220.67559404 182.60800156 -223.81833829 182.66507819 -226.9609375 182.75976562 C-229.28403804 182.82641195 -231.60585753 182.86110786 -233.9296875 182.890625 C-234.98758987 182.93404022 -234.98758987 182.93404022 -236.06686401 182.97833252 C-239.98067227 182.9995565 -241.50592713 182.59063655 -244.5402832 180.03149414 C-245.24886475 179.17547607 -245.95744629 178.31945801 -246.6875 177.4375 C-258.40682669 166.58466697 -272.26373269 160.78198472 -287.6875 157.4375 C-288.56792969 157.23640625 -289.44835937 157.0353125 -290.35546875 156.828125 C-293.86726797 156.07191375 -297.17696949 155.45492645 -300.77734375 155.33203125 C-311.27936067 154.69445176 -317.28678969 150.06658862 -325.36328125 143.69921875 C-333.81136674 136.98397132 -333.81136674 136.98397132 -344.0625 135.3125 C-348.2843923 135.72798781 -348.2843923 135.72798781 -350.44921875 134.16796875 C-352.609169 131.14948938 -352.21239658 127.93879877 -351.6875 124.4375 C-349.53283371 116.80639021 -345.63156467 108.6126954 -340.6875 102.4375 C-337.63671875 101.15234375 -337.63671875 101.15234375 -334.6875 100.4375 C-333.2953125 99.9734375 -333.2953125 99.9734375 -331.875 99.5 C-330.823125 99.149375 -329.77125 98.79875 -328.6875 98.4375 C-328.06705811 98.2120752 -327.44661621 97.98665039 -326.80737305 97.75439453 C-302.30650409 89.07765368 -275.24205014 90.97651457 -249.6875 91.4375 C-249.6875 90.7775 -249.6875 90.1175 -249.6875 89.4375 C-245.73291085 90.17713637 -242.32760384 91.99195733 -238.75 93.75 C-231.35475282 97.32257518 -223.81947745 100.46461584 -216.2074585 103.54467773 C-204.68226865 108.21459394 -193.4960276 113.21744785 -182.65332031 119.33105469 C-180.73520739 120.4106483 -178.80349788 121.46129488 -176.8671875 122.5078125 C-170.67694395 125.94045335 -170.67694395 125.94045335 -168.6875 127.4375 C-168.6875 128.4275 -168.6875 129.4175 -168.6875 130.4375 C-167.924375 130.72625 -167.16125 131.015 -166.375 131.3125 C-163.6875 132.4375 -163.6875 132.4375 -160.6875 134.4375 C-160.45160156 133.84582031 -160.21570313 133.25414062 -159.97265625 132.64453125 C-158.39247541 129.93084683 -156.74376225 128.84215396 -154.125 127.125 C-149.77751709 124.20777596 -145.66612041 121.1134795 -141.59765625 117.8203125 C-136.82761658 114.36715495 -130.77400149 115.04544852 -125.125 114.8125 C-124.05830078 114.7609375 -122.99160156 114.709375 -121.89257812 114.65625 C-120.87486328 114.61242187 -119.85714844 114.56859375 -118.80859375 114.5234375 C-117.8745874 114.4826709 -116.94058105 114.4419043 -115.97827148 114.39990234 C-113.6875 114.4375 -113.6875 114.4375 -111.6875 115.4375 C-112.0175 114.4475 -112.3475 113.4575 -112.6875 112.4375 C-113.59026901 93.66830252 -111.23697698 75.25277199 -107.70703125 56.859375 C-106.67033534 51.44388704 -105.78295578 46.01076354 -104.9375 40.5625 C-104.80996338 39.74120605 -104.68242676 38.91991211 -104.55102539 38.07373047 C-104.26102153 36.1953195 -103.97390093 34.31646368 -103.6875 32.4375 C-102.65689453 32.77974609 -102.65689453 32.77974609 -101.60546875 33.12890625 C-97.59914256 33.55260072 -95.54118698 32.24274812 -92 30.375 C-91.0709082 29.89063477 -91.0709082 29.89063477 -90.12304688 29.39648438 C-85.7481411 27.08889159 -81.5218174 24.56886353 -77.3125 21.97265625 C-73.01245185 19.45789595 -68.54199703 17.28992432 -64.0703125 15.1015625 C-62.03248973 14.09912312 -60.00325817 13.07852095 -57.9921875 12.0234375 C-40.09788499 2.64475162 -19.99106754 0.1026499 0 0 Z " fill="#010000" transform="translate(418.6875,56.5625)"/>
<path d="M0 0 C1.875 0.25 1.875 0.25 4 1 C13.98502896 16.09563022 10.50850566 41.78394312 10.33294678 59.1362915 C10.3054053 62.32016822 10.29708311 65.50397267 10.28938007 68.68795013 C10.27941937 72.51075724 10.25961022 76.33349181 10.23828125 80.15625 C10.23318763 81.23458351 10.23318763 81.23458351 10.2279911 82.33470154 C10.21638199 84.36705248 10.19686446 86.39935359 10.17700195 88.43164062 C10.16715775 89.58297485 10.15731354 90.73430908 10.14717102 91.92053223 C10.01312041 94.72546298 9.63861777 97.27086218 9 100 C10.32 100 11.64 100 13 100 C13 101.32 13 102.64 13 104 C12.01 104.495 12.01 104.495 11 105 C10.09588913 107.71233261 9.85812597 109.3811416 9.81054688 112.17675781 C9.79382935 113.01482971 9.77711182 113.85290161 9.7598877 114.71636963 C9.74631226 115.6194989 9.73273682 116.52262817 9.71875 117.453125 C9.70034058 118.38670837 9.68193115 119.32029175 9.66296387 120.28216553 C9.60420383 123.27137946 9.55143275 126.26065157 9.5 129.25 C9.43204006 133.17198727 9.35826902 137.09380643 9.28125 141.015625 C9.26767456 141.91065735 9.25409912 142.8056897 9.2401123 143.72784424 C9.1447917 148.5782848 8.79191002 153.2133181 8 158 C7.65276754 160.91179218 7.70553189 163.00624086 8 166 C9.97136086 168.36318104 9.97136086 168.36318104 13 170 C13.66257812 170.433125 14.32515625 170.86625 15.0078125 171.3125 C17.9966118 173.25356523 20.60336372 174.86778791 24 176 C26.08083066 174.99508226 26.08083066 174.99508226 28.3125 173.5625 C34.61480975 170.23035096 41.0042884 169.94271361 48 171 C51.15094267 172.80053867 51.83385242 173.50155727 53 177 C53.36912499 181.98318736 53.26181554 185.10686532 50 189 C45.40693508 192.00315783 41.14257563 193.79603902 36 196 C42.27 196.66 48.54 197.32 55 198 C55 198.99 55 199.98 55 201 C53.88625 201.45375 52.7725 201.9075 51.625 202.375 C48.03800992 203.72465986 48.03800992 203.72465986 46 206 C43.75341797 206.22705078 43.75341797 206.22705078 40.9921875 206.1953125 C40.00605469 206.18886719 39.01992188 206.18242187 38.00390625 206.17578125 C36.45509766 206.15064453 36.45509766 206.15064453 34.875 206.125 C33.83472656 206.11597656 32.79445313 206.10695313 31.72265625 206.09765625 C29.14820908 206.07403747 26.57421788 206.04110149 24 206 C24 207.32 24 208.64 24 210 C24.57621094 210.26039063 25.15242187 210.52078125 25.74609375 210.7890625 C28.16230095 212.08719808 30.00794479 213.5619243 32.0625 215.375 C32.73410156 215.96023438 33.40570312 216.54546875 34.09765625 217.1484375 C35.98992125 218.99019029 37.54512063 220.79728544 39 223 C39 223.66 39 224.32 39 225 C39.66 225 40.32 225 41 225 C41 225.99 41 226.98 41 228 C42.98 228.99 42.98 228.99 45 230 C45 230.66 45 231.32 45 232 C45.99 232.33 46.98 232.66 48 233 C48.6875 235.0625 48.6875 235.0625 49 237 C49.66 237 50.32 237 51 237 C51.556875 238.03125 52.11375 239.0625 52.6875 240.125 C54.19231238 242.81216496 55.53422686 244.5714985 57.6875 246.875 C60.28724303 250.38816626 60.61329704 252.31685747 60.76171875 256.55859375 C60.93807679 259.16424624 60.93807679 259.16424624 61.953125 262.21484375 C63.14782245 266.53447744 63.65539607 270.67414372 64.0625 275.125 C64.14411377 275.99970947 64.22572754 276.87441895 64.30981445 277.77563477 C64.55507651 280.51606538 64.78215792 283.2572598 65 286 C65.09909668 287.24257568 65.09909668 287.24257568 65.20019531 288.51025391 C66.04806546 299.87035372 66.0516633 311.17734731 65.75 322.5625 C65.72381592 323.8302124 65.69763184 325.0979248 65.6706543 326.40405273 C65.62980713 327.59200439 65.58895996 328.77995605 65.546875 330.00390625 C65.51432617 331.06424072 65.48177734 332.1245752 65.44824219 333.21704102 C64.94565275 336.33742067 64.1409444 337.71348828 62 340 C52.63027509 346.08631704 42.68016145 345.53400807 32 345 C31.505 343.515 31.505 343.515 31 342 C31.84304688 341.66226562 32.68609375 341.32453125 33.5546875 340.9765625 C34.65039062 340.53054688 35.74609375 340.08453125 36.875 339.625 C37.96554687 339.18414062 39.05609375 338.74328125 40.1796875 338.2890625 C43.06329362 337.16948662 43.06329362 337.16948662 45 335 C45.3441834 330.43956995 45.14593573 327.04787294 43 323 C37.31297833 318.28814289 30.89844753 314.60608018 24 312 C23 311 23 311 22.91821289 308.48730469 C22.9361792 307.39321289 22.95414551 306.29912109 22.97265625 305.171875 C22.98490234 303.97949219 22.99714844 302.78710938 23.00976562 301.55859375 C23.04470637 299.03509581 23.08371782 296.5116507 23.12695312 293.98828125 C23.14338867 292.19197266 23.14338867 292.19197266 23.16015625 290.359375 C23.17699463 289.26077148 23.19383301 288.16216797 23.21118164 287.03027344 C22.99460031 283.92251914 22.19737306 281.84534815 21 279 C21 277.68 21 276.36 21 275 C20.34 275 19.68 275 19 275 C19 273.35 19 271.7 19 270 C18.34 270 17.68 270 17 270 C16.60167969 269.11828125 16.20335937 268.2365625 15.79296875 267.328125 C13.95993111 263.92562376 11.96932584 261.53945322 9.3125 258.75 C5 254.21052632 5 254.21052632 5 252 C4.34 252 3.68 252 3 252 C2.01 249.525 2.01 249.525 1 247 C0.34 247 -0.32 247 -1 247 C-1.43824362 243.38449016 -1.0226095 242.03646694 0.9375 238.875 C3.77224424 234.24829244 4.24209073 229.35827481 4 224 C2.72746144 220.52903143 2.72746144 220.52903143 1 218 C1 217.34 1 216.68 1 216 C-1.16678397 214.90398107 -3.34130878 213.841142 -5.54296875 212.81640625 C-6.85201172 212.19572266 -6.85201172 212.19572266 -8.1875 211.5625 C-9.06792969 211.15128906 -9.94835937 210.74007812 -10.85546875 210.31640625 C-13 209 -13 209 -14 206 C-19.93514412 204.90529564 -23.74308758 204.53521681 -29 208 C-29.78375 208.70125 -30.5675 209.4025 -31.375 210.125 C-34.9607552 212.68625371 -37.63838909 212.70429757 -42 213 C-42.33 211.68 -42.66 210.36 -43 209 C-43.598125 209.20625 -44.19625 209.4125 -44.8125 209.625 C-47 210 -47 210 -50 208 C-50 207.34 -50 206.68 -50 206 C-52.41913128 206.25575393 -54.83410539 206.52893381 -57.25 206.8125 C-57.93191406 206.88275391 -58.61382812 206.95300781 -59.31640625 207.02539062 C-63.43312056 207.52499188 -65.86329713 208.31451657 -69 211 C-71.6875 211.25 -71.6875 211.25 -74 211 C-75.79309961 209.20690039 -75.29807043 206.67624022 -75.375 204.25 C-75.33376649 198.46356457 -75.33376649 198.46356457 -72.75 194.875 C-70.53157613 193.36243827 -68.48338504 192.01174946 -66 191 C-66 190.34 -66 189.68 -66 189 C-64.37550757 187.29220027 -62.70779973 185.62449243 -61 184 C-59.71387324 182.94021067 -59.71387324 182.94021067 -59.90234375 180.49609375 C-59.91394531 179.48675781 -59.92554688 178.47742188 -59.9375 177.4375 C-59.94652344 176.42558594 -59.95554687 175.41367187 -59.96484375 174.37109375 C-59.97644531 173.58863281 -59.98804688 172.80617188 -60 172 C-59.34 172 -58.68 172 -58 172 C-58 171.34 -58 170.68 -58 170 C-54.12315913 168.80712589 -51.08378077 168 -47 168 C-46.91621094 167.27554688 -46.83242188 166.55109375 -46.74609375 165.8046875 C-45.84170571 162.40494607 -44.38135764 160.74996362 -42.0625 158.125 C-36.73878144 151.65844382 -35.54998086 146.11888556 -35.6640625 137.859375 C-36.12943414 133.89830477 -37.46459628 130.59940044 -39.125 126.99609375 C-40 125 -40 125 -40 123 C-40.66 123 -41.32 123 -42 123 C-43.8484977 120.57327765 -45.4770431 118.03173818 -47.1484375 115.48046875 C-48.85595623 112.94085584 -48.85595623 112.94085584 -51.19921875 111.38671875 C-51.79347656 110.92910156 -52.38773437 110.47148437 -53 110 C-53.9460334 102.70202803 -50.51851697 98.77649828 -46.6875 92.9375 C-41.03569402 84.02872108 -36.35719388 75.57675234 -35 65 C-34.34 65 -33.68 65 -33 65 C-33.01160156 64.42894531 -33.02320313 63.85789063 -33.03515625 63.26953125 C-33.26311398 42.78590051 -33.26311398 42.78590051 -30 38 C-28.01171875 36.4375 -28.01171875 36.4375 -25.6875 35 C-22.99729408 33.29591458 -20.54655337 31.63338358 -18.0625 29.625 C-16 28 -16 28 -14 28 C-14 27.34 -14 26.68 -14 26 C-13.34 26 -12.68 26 -12 26 C-11.7525 25.49082031 -11.505 24.98164062 -11.25 24.45703125 C-10.24317011 22.47798125 -9.19106137 20.52200171 -8.125 18.57421875 C-7.77953125 17.94193359 -7.4340625 17.30964844 -7.078125 16.65820312 C-6.36430416 15.35341104 -5.64561214 14.05127107 -4.921875 12.75195312 C-2.64879484 8.56626261 -1.14887572 4.6254215 0 0 Z " fill="#020100" transform="translate(496,95)"/>
<path d="M0 0 C5.25583147 0.29327694 8.4732641 2.3993099 12.4375 5.625 C13.29444458 6.30332886 13.29444458 6.30332886 14.16870117 6.99536133 C17.80186234 9.91130823 21.18653227 12.9689648 24.390625 16.35546875 C26.19017041 18.19432461 28.10024419 19.8365087 30.0625 21.5 C42.78342917 32.59128815 50.89645014 48.0903111 58.80078125 62.7734375 C59.99412486 64.98909177 61.19924066 67.19801652 62.40625 69.40625 C63.14656344 70.77043738 63.88618168 72.13500232 64.625 73.5 C64.96805176 74.1290625 65.31110352 74.758125 65.66455078 75.40625 C68 79.76802697 68 79.76802697 68 82 C70.31 82 72.62 82 75 82 C74.67 82.66 74.34 83.32 74 84 C72.515 84.495 72.515 84.495 71 85 C68.4979993 100.34957569 67.77543715 120.54186265 76.9375 133.8046875 C78.88920106 136.28019068 80.88046625 138.6672072 83 141 C83.45503906 141.59425781 83.91007812 142.18851563 84.37890625 142.80078125 C86.89187517 144.65977272 88.83299239 144.05566473 91.875 143.6875 C93.02871094 143.57792969 94.18242187 143.46835937 95.37109375 143.35546875 C97.16740234 143.17951172 97.16740234 143.17951172 99 143 C110.52339816 141.94315796 110.52339816 141.94315796 113.9375 144.38671875 C115.4375 146.1875 115.4375 146.1875 116.71875 148.13671875 C118.09871825 150.14356282 119.43785587 151.14115092 121.4375 152.5 C124 155 124 155 124.3125 158.3125 C120.90365725 167.88972488 112.62504397 172.57934454 104.42578125 177.80078125 C100.58487694 180.22322773 100.58487694 180.22322773 97 183 C96.76756638 185.09532396 96.76756638 185.09532396 98.3984375 186.4375 C103.7064835 190.63358379 108.30715871 192.20453936 115 193 C115 193.66 115 194.32 115 195 C113.35 195 111.7 195 110 195 C110.15597656 195.55945313 110.31195313 196.11890625 110.47265625 196.6953125 C113.51990024 209.2475361 111.84336667 218.83701372 105.3269043 229.75830078 C103.60755521 232.54387756 101.81570799 235.27643802 100 238 C99.44054687 237.83886719 98.88109375 237.67773438 98.3046875 237.51171875 C92.11247952 236.13683867 85.84609769 236.53848518 80 239 C79.54427083 236.98177083 79.08854167 234.96354167 78.6328125 232.9453125 C78.09525572 230.79280036 78.09525572 230.79280036 76 229 C70.43130366 228.2229726 67.58172692 230.18047574 63 233 C62.34 233 61.68 233 61 233 C60.79246094 232.443125 60.58492187 231.88625 60.37109375 231.3125 C57.86260464 225.09900396 54.25190123 218.12595061 48 215 C44.75789481 214.16212879 44.75789481 214.16212879 41 215 C37.2708061 218.26475217 34.20946636 222.10451912 31.546875 226.27734375 C30 228 30 228 27.90625 228.42578125 C27.1121875 228.38839844 26.318125 228.35101563 25.5 228.3125 C24.62601563 228.27769531 23.75203125 228.24289062 22.8515625 228.20703125 C18.22648978 227.8712383 13.61137085 227.49094442 9 227 C9 227.66 9 228.32 9 229 C8.34 229 7.68 229 7 229 C6.56223509 224.46786815 6.16941998 219.93474686 5.81591797 215.39526367 C5.689874 213.85517405 5.55208077 212.31599538 5.40185547 210.77807617 C4.00765306 196.36352041 4.00765306 196.36352041 7.9609375 190.43359375 C9.66552734 188.36889648 9.66552734 188.36889648 11 187 C9.02 187 7.04 187 5 187 C5.3125 185.125 5.3125 185.125 6 183 C9.18762365 180.87491756 11.26512223 180.4979837 15 180 C21.05488928 162.64625484 21.94156662 141.8547473 14.00927734 124.87988281 C12.5546599 121.96804459 11.07485796 119.06943217 9.59204102 116.171875 C6.15870602 109.05553798 6.37649335 102.72703349 8.52246094 95.15698242 C12.25222962 78.3100978 8.68386258 61.0258479 0.1328125 46.48046875 C-1.66145329 42.55164538 -1.11949758 40.10482445 0 36 C0.33 35.34 0.66 34.68 1 34 C1.24028556 30.79753866 1.18520352 27.58547612 1.1875 24.375 C1.19974609 23.49714844 1.21199219 22.61929687 1.22460938 21.71484375 C1.23710193 16.10985034 0.52437097 11.38888956 -1 6 C-1.1875 3.0625 -1.1875 3.0625 -1 1 C-0.67 0.67 -0.34 0.34 0 0 Z " fill="#010100" transform="translate(119,256)"/>
<path d="M0 0 C1.13969689 3.41909067 0.90451485 3.69306103 -0.4375 6.8125 C-3.4758548 15.46551044 -2.54034108 24.35508673 -0.4375 33.125 C1.76452639 42.55177014 0.6371892 50.04213148 -2.0625 59.25 C-5.85713648 72.94127081 -3.92675527 85.14958826 -0.875 98.69921875 C0.48388115 105.08596017 0.48388115 105.08596017 0 108 C-1.5390625 109.66796875 -1.5390625 109.66796875 -3.625 111.1875 C-10.94197032 117.17058016 -15.49847217 125.67801473 -17 135 C-17.60161515 143.43096782 -17.51133379 150.24348225 -14 158 C-14 159.32 -14 160.64 -14 162 C-13.34 162 -12.68 162 -12 162 C-10.65929682 164.60060504 -9.32726646 167.20504916 -8 169.8125 C-7.6184375 170.55048828 -7.236875 171.28847656 -6.84375 172.04882812 C-6.4828125 172.76103516 -6.121875 173.47324219 -5.75 174.20703125 C-5.41484375 174.8616333 -5.0796875 175.51623535 -4.734375 176.19067383 C-4 178 -4 178 -4 181 C-1.69 181.66 0.62 182.32 3 183 C2.67 183.99 2.34 184.98 2 186 C0.68 186 -0.64 186 -2 186 C-2.33 187.98 -2.66 189.96 -3 192 C-9.7831364 193.42002108 -16.06697907 194.22731216 -23 194 C-22.67 194.66 -22.34 195.32 -22 196 C-21.8769109 198.31006744 -21.8244366 200.62418636 -21.8125 202.9375 C-21.79832031 204.18402344 -21.78414062 205.43054688 -21.76953125 206.71484375 C-22 210 -22 210 -24 213 C-26.125 214.1875 -26.125 214.1875 -28 215 C-27.67 216.65 -27.34 218.3 -27 220 C-28.32 219.34 -29.64 218.68 -31 218 C-31 217.34 -31 216.68 -31 216 C-35.88885774 215.89984217 -40.7770962 215.82793551 -45.66674805 215.78027344 C-47.32408066 215.76036939 -48.98134506 215.73323586 -50.63842773 215.69824219 C-63.95523535 215.42441609 -76.46918173 215.95826709 -87.07421875 225.08984375 C-90.82612825 228.81131179 -94.22453895 232.55514362 -95.84375 237.66015625 C-96.89152121 240.79895364 -97.6488648 242.63995899 -100 245 C-105.09284288 246.6749915 -110.61713587 246.66197413 -115.93164062 246.88769531 C-119.76301028 247.0957253 -123.34009388 247.8905009 -127 249 C-127.75796875 249.21914063 -128.5159375 249.43828125 -129.296875 249.6640625 C-134.15831036 251.32066627 -137.63046578 253.42573344 -141.52148438 256.80419922 C-148.4491876 262.78050349 -153.26337287 263.88819701 -162.30078125 263.8671875 C-167.21223483 264.04352269 -172.40173323 265.40173323 -176 269 C-177.66617115 269.04063832 -179.33388095 269.042721 -181 269 C-177.13369024 264.88738093 -172.96046848 261.70785372 -168.375 258.4375 C-161.91553701 253.73107801 -156.69399134 248.71470433 -151.46484375 242.69921875 C-148.00998994 238.91585269 -144.13688827 235.98821507 -140 233 C-138.5459375 231.7934375 -138.5459375 231.7934375 -137.0625 230.5625 C-135 229 -135 229 -133 229 C-132.66742188 228.14728516 -132.66742188 228.14728516 -132.328125 227.27734375 C-130.59517144 224.30583809 -128.44708478 222.68848076 -125.75 220.5625 C-124.76644531 219.78132812 -123.78289062 219.00015625 -122.76953125 218.1953125 C-121.39861328 217.10863281 -121.39861328 217.10863281 -120 216 C-118.80838813 214.98396944 -117.61981976 213.96432858 -116.4375 212.9375 C-114 211 -114 211 -112 211 C-112 210.34 -112 209.68 -112 209 C-111.12472656 208.58878906 -110.24945313 208.17757812 -109.34765625 207.75390625 C-106.08864521 206.04644305 -103.35390124 204.17246118 -100.4375 201.9375 C-99.40109375 201.14601563 -98.3646875 200.35453125 -97.296875 199.5390625 C-96.75869141 199.12430664 -96.22050781 198.70955078 -95.66601562 198.28222656 C-93.97512089 196.98085213 -92.27740105 195.68884338 -90.578125 194.3984375 C-88.3525692 192.70633991 -86.14003091 190.99929185 -83.9375 189.27734375 C-82.19180625 187.92396681 -80.42702018 186.59382516 -78.625 185.31640625 C-76.12486343 183.45642562 -74.19659142 182.01634054 -73.5859375 178.859375 C-73.51149397 176.38621586 -73.51149397 176.38621586 -74 173 C-75.03125 172.855625 -76.0625 172.71125 -77.125 172.5625 C-81.65754484 171.26617379 -83.4267192 168.34893925 -85.77734375 164.4375 C-88.62330872 158.76375513 -89.26172598 153.28142344 -89 147 C-80.90846172 145.27557381 -76.18794717 147.11716499 -69 151 C-69 150.34 -69 149.68 -69 149 C-68.34 148.67 -67.68 148.34 -67 148 C-67.165 147.113125 -67.33 146.22625 -67.5 145.3125 C-68.34061774 139.58209173 -68.0781681 133.77575419 -68 128 C-63.36892708 128.4995618 -60.60356141 129.60487758 -56.875 132.375 C-56.04742187 132.98085938 -55.21984375 133.58671875 -54.3671875 134.2109375 C-53.58601563 134.80132812 -52.80484375 135.39171875 -52 136 C-51.23945313 136.56976563 -50.47890625 137.13953125 -49.6953125 137.7265625 C-48.85613281 138.35691406 -48.85613281 138.35691406 -48 139 C-47.814375 137.4221875 -47.814375 137.4221875 -47.625 135.8125 C-47 132 -47 132 -46.10546875 129.85546875 C-44.54697097 125.82980841 -43.65550185 121.7012361 -42.6875 117.5 C-42.24872073 115.6289009 -41.80991791 113.75780732 -41.37109375 111.88671875 C-41.14663574 110.9229834 -40.92217773 109.95924805 -40.69091797 108.96630859 C-39.55270342 104.07962778 -38.40329388 99.19564053 -37.25 94.3125 C-37.03947998 93.41015625 -36.82895996 92.5078125 -36.61206055 91.578125 C-36.41523682 90.74410156 -36.21841309 89.91007812 -36.015625 89.05078125 C-35.84321289 88.31512939 -35.67080078 87.57947754 -35.49316406 86.8215332 C-35 85 -35 85 -34 83 C-33.77377919 81.29636178 -33.59111527 79.58671299 -33.4375 77.875 C-33.35371094 76.96492188 -33.26992188 76.05484375 -33.18359375 75.1171875 C-33.12300781 74.41851562 -33.06242188 73.71984375 -33 73 C-32.01 73 -31.02 73 -30 73 C-29.608125 71.7625 -29.21625 70.525 -28.8125 69.25 C-27.22903314 64.49959942 -25.34145408 59.91660347 -23.38671875 55.30859375 C-21.87578141 51.70362495 -20.43542013 48.07291743 -19 44.4375 C-16.89528004 39.12341725 -14.61856204 33.91766859 -12.2109375 28.734375 C-10.8821844 25.73396477 -9.71626146 22.69679802 -8.5625 19.625 C-6.0341502 12.91762616 -3.0817902 6.47070039 0 0 Z " fill="#030200" transform="translate(431,310)"/>
<path d="M0 0 C1.13307053 3.3992116 0.9029599 3.78949786 -0.375 6.9375 C-2.39635877 12.53084891 -2.71036752 18.09748979 -3 24 C-3.33 24 -3.66 24 -4 24 C-4.33 21.69 -4.66 19.38 -5 17 C-6.485 19.475 -6.485 19.475 -8 22 C-8.33 21.34 -8.66 20.68 -9 20 C-8.28735352 17.93701172 -8.28735352 17.93701172 -7.12890625 15.4296875 C-6.51499023 14.08583984 -6.51499023 14.08583984 -5.88867188 12.71484375 C-5.45103516 11.77769531 -5.01339844 10.84054687 -4.5625 9.875 C-3.9118457 8.45767578 -3.9118457 8.45767578 -3.24804688 7.01171875 C-2.1723338 4.67115623 -1.08940487 2.33421339 0 0 Z " fill="#423100" transform="translate(431,310)"/>
<path d="M0 0 C0.66 0.33 1.32 0.66 2 1 C0.8125 3.5 0.8125 3.5 -1 6 C-3.6875 6.3125 -3.6875 6.3125 -6 6 C-4 4 -2 2 0 0 Z " fill="#3F3000" transform="translate(256,573)"/>
<path d="M0 0 C1.15957207 3.47871621 0.77456651 4.34219645 -0.4375 7.6875 C-0.86869141 8.89986328 -0.86869141 8.89986328 -1.30859375 10.13671875 C-1.53675781 10.75160156 -1.76492188 11.36648438 -2 12 C-3.1171875 10.265625 -3.1171875 10.265625 -4 8 C-3.3203125 5.859375 -3.3203125 5.859375 -2.125 3.75 C-1.73570312 3.04359375 -1.34640625 2.3371875 -0.9453125 1.609375 C-0.63335937 1.07828125 -0.32140625 0.5471875 0 0 Z " fill="#543F00" transform="translate(431,310)"/>
</svg>
